<?xml version="1.0" standalone="no"?>
<!DOCTYPE svg PUBLIC "-//W3C//DTD SVG 20010904//EN"
 "http://www.w3.org/TR/2001/REC-SVG-20010904/DTD/svg10.dtd">
<svg version="1.0" xmlns="http://www.w3.org/2000/svg"
 width="225.000000pt" height="225.000000pt" viewBox="0 0 225.000000 225.000000"
 preserveAspectRatio="xMidYMid meet">
<metadata>
Created by potrace 1.10, written by Peter Selinger 2001-2011
</metadata>
<g transform="translate(0.000000,225.000000) scale(0.100000,-0.100000)"
fill="#000000" stroke="none">
<path d="M180 1138 c0 -592 -3 -1083 -6 -1092 -6 -14 30 -16 360 -16 l367 0
-3 259 c-2 171 0 257 7 253 6 -3 48 -32 96 -63 92 -61 87 -54 248 -316 l82
-133 365 0 364 0 0 1094 0 1094 -357 1 -358 0 3 -194 c2 -130 -1 -195 -8 -195
-5 0 -10 7 -10 15 0 8 -8 23 -17 33 -34 36 -109 170 -123 222 -6 19 -17 46
-24 60 l-14 24 -21 -34 c-20 -34 -25 -55 -22 -92 1 -10 -3 -18 -10 -18 -16 0
-7 -109 11 -120 7 -4 10 -12 7 -17 -3 -5 3 -14 14 -21 10 -7 19 -11 19 -10 0
2 -7 25 -15 52 -10 34 -12 53 -5 60 5 5 10 31 10 57 0 54 14 72 25 32 3 -15 2
-29 -3 -31 -24 -8 18 -131 68 -200 17 -23 28 -47 25 -52 -3 -5 0 -7 7 -5 8 3
23 -7 35 -23 21 -29 21 -29 1 -46 -12 -10 -17 -24 -14 -34 3 -9 -8 -2 -25 16
-28 32 -29 35 -14 52 11 12 13 20 5 25 -5 3 -8 10 -5 14 2 5 -5 17 -16 27 -12
11 -35 42 -51 69 -16 28 -26 39 -22 25 9 -34 27 -68 58 -109 40 -54 30 -61
-14 -11 -22 25 -39 41 -40 35 0 -23 62 -116 107 -159 26 -25 41 -46 34 -46 -7
0 -39 27 -72 59 -51 51 -58 56 -53 33 8 -35 47 -118 74 -159 12 -18 17 -33 12
-33 -15 0 -82 105 -104 162 -10 26 -18 66 -18 87 0 21 -10 63 -22 92 -28 71
-43 86 -33 34 4 -22 6 -53 6 -68 -1 -15 3 -35 7 -45 5 -9 12 -32 16 -51 5 -28
4 -32 -8 -22 -8 6 -20 26 -27 44 -7 18 -55 109 -107 202 -52 94 -106 190 -119
215 l-24 45 -325 0 -324 0 0 -1077z m42 1049 c-13 -15 -21 -2115 -9 -2134 5
-8 3 -13 -7 -13 -14 0 -15 117 -13 1080 2 1048 3 1080 21 1080 14 0 16 -3 8
-13z m636 -59 c22 -40 54 -99 72 -131 17 -31 30 -62 28 -68 -2 -6 -16 13 -32
42 -32 63 -58 107 -98 168 -29 47 -34 61 -19 61 5 0 27 -33 49 -72z m552 63
c-24 -7 -25 -10 -30 -121 l-5 -115 -5 85 c-3 47 -4 102 -2 123 3 35 5 37 35
36 30 -1 30 -1 7 -8z m-475 -267 c80 -141 144 -258 142 -260 -13 -14 -80 83
-186 269 l-123 217 -254 0 -254 0 0 -1025 0 -1025 274 0 273 0 7 61 c3 34 6
151 6 260 0 134 3 199 11 199 5 0 7 5 4 10 -3 6 -1 10 5 10 7 0 9 -8 5 -20 -4
-11 -2 -20 4 -20 7 0 10 -89 10 -270 l0 -270 -320 0 -319 0 2 1060 3 1060 282
0 282 0 146 -256z m1095 -804 l0 -1060 -334 0 -333 0 -53 82 c-80 125 -160
258 -163 271 -1 7 6 12 15 12 11 0 54 -59 122 -165 l105 -164 300 -1 301 0 0
1023 0 1022 -274 0 -273 0 -6 -67 c-4 -38 -7 -129 -7 -203 0 -118 -2 -132 -15
-120 -11 12 -15 59 -19 223 l-4 207 319 0 319 0 0 -1060z m-866 1005 c3 -9 0
-15 -10 -15 -8 0 -19 -10 -24 -22 -5 -13 -9 -18 -9 -11 -1 17 21 63 30 63 4 0
9 -7 13 -15z m-384 -32 c102 -172 210 -366 206 -370 -2 -3 -35 15 -73 40 -84
55 -202 127 -207 127 -5 0 -272 166 -308 192 -30 21 -51 16 -46 -10 2 -10 -3
-22 -11 -28 -12 -10 -10 -19 17 -67 25 -44 28 -56 17 -61 -23 -9 -18 -25 27
-85 24 -31 43 -61 43 -68 0 -6 18 -31 41 -55 38 -41 84 -121 84 -147 0 -7 11
-27 25 -45 17 -23 22 -35 14 -43 -22 -22 64 -132 124 -157 27 -12 27 -12 7
-31 -24 -21 -26 -43 -5 -51 8 -4 15 -15 15 -25 0 -10 5 -19 10 -19 6 0 10 -7
10 -16 0 -9 9 -18 20 -21 11 -3 20 -11 20 -19 0 -7 6 -17 13 -21 8 -4 24 -23
37 -40 13 -18 30 -33 37 -33 8 0 11 -5 8 -10 -4 -6 15 -32 42 -58 27 -26 52
-55 55 -63 4 -11 25 -19 60 -24 l53 -7 -45 -13 c-66 -18 -170 -32 -170 -23 0
4 -8 8 -18 8 -10 0 -23 5 -30 12 -9 9 -12 8 -12 -5 0 -10 -8 -17 -17 -17 -16
0 -18 11 -19 85 0 47 0 85 1 85 2 0 24 -36 51 -80 27 -44 52 -80 57 -80 10 0
-6 30 -57 107 -23 35 -45 61 -51 59 -6 -1 -10 -44 -10 -99 l0 -96 -60 -6 c-84
-9 -127 -23 -118 -40 14 -23 107 -95 124 -95 21 0 79 -29 79 -40 0 -5 -4 -12
-10 -15 -6 -4 -10 -100 -10 -256 l0 -249 -260 0 -260 0 0 1005 0 1005 239 0
239 0 22 -37z m1179 22 c10 -10 23 -1868 14 -1957 l-5 -47 -284 0 -284 0 -85
130 c-47 71 -85 132 -85 136 0 14 -52 73 -64 73 -8 0 -19 -7 -26 -15 -11 -13
-10 -23 4 -53 19 -40 14 -37 -28 21 -16 21 -52 54 -81 72 -29 19 -59 41 -68
49 -8 8 -17 12 -20 9 -3 -3 -13 2 -23 11 -9 10 -24 14 -34 11 -14 -5 -18 -1
-17 15 2 24 5 25 36 1 13 -10 32 -16 41 -14 11 3 19 -2 22 -14 6 -21 143 -107
157 -99 4 3 11 40 13 81 5 69 8 79 38 110 17 18 52 41 77 50 54 21 61 16 108
-73 17 -31 37 -57 45 -57 8 0 28 -17 44 -38 16 -21 34 -36 41 -33 30 11 33
-57 5 -99 -22 -33 -26 -70 -10 -80 6 -4 30 9 54 28 l43 36 33 -55 c35 -58 53
-64 58 -20 3 26 5 26 17 10 11 -15 15 -16 29 -5 37 31 6 110 -59 149 -35 21
-44 32 -40 47 3 11 5 34 5 52 l0 31 39 -15 c51 -20 74 -12 65 22 -5 22 -3 25
17 23 33 -4 36 26 5 57 -21 21 -34 25 -85 25 -87 0 -88 1 -83 72 4 49 1 64
-12 73 -15 11 -13 17 16 61 25 36 45 54 80 68 48 20 48 20 90 -1 61 -28 120
-24 158 12 37 36 38 65 2 107 -16 18 -38 47 -50 65 -12 17 -43 43 -69 58 -45
27 -49 28 -149 21 l-103 -7 -21 43 c-29 59 -40 150 -33 273 l6 104 -59 58
c-32 32 -51 52 -41 44 9 -7 24 -11 32 -7 13 4 15 35 15 195 l0 190 38 4 c68 9
462 1 471 -8z m-1234 -255 c289 -172 338 -213 415 -337 34 -57 46 -67 34 -30
-32 98 -33 105 -18 118 11 9 17 5 28 -22 24 -60 29 -82 17 -74 -20 12 -1 -46
31 -97 36 -57 131 -147 196 -185 46 -28 49 -28 191 -25 139 2 145 1 188 -24
42 -24 70 -65 57 -85 -9 -14 -24 -10 -24 6 0 9 -12 27 -26 40 -25 24 -34 25
-141 25 -63 0 -145 -5 -183 -11 -68 -12 -69 -12 -117 19 -64 41 -127 109 -198
212 -127 184 -213 271 -370 374 -27 18 -97 63 -155 101 -58 38 -123 82 -145
100 -62 49 -71 51 -41 12 38 -50 102 -100 174 -137 34 -17 62 -35 62 -40 0
-12 -71 13 -155 55 l-70 34 45 -40 c25 -21 74 -58 109 -81 35 -23 59 -44 53
-46 -6 -2 -45 13 -88 32 -146 68 -85 22 84 -63 45 -23 82 -46 82 -51 0 -12 -6
-12 -28 -1 -9 6 -61 31 -114 56 -96 47 -186 116 -229 176 -29 42 -15 49 24 12
17 -16 50 -40 72 -53 38 -22 37 -20 -23 41 -113 116 -155 211 -46 103 37 -36
69 -62 73 -59 3 4 -3 14 -14 23 -28 23 -115 130 -115 142 0 5 51 -23 113 -64
61 -40 175 -110 252 -156z m465 157 c0 -38 172 -271 239 -325 52 -42 63 -81
51 -180 -11 -87 0 -176 30 -248 11 -26 19 -48 17 -50 -1 -2 -14 2 -27 9 -15 8
-32 32 -44 62 -17 43 -20 71 -18 198 l1 148 -66 70 c-86 89 -128 147 -169 236
-34 71 -43 110 -24 98 6 -3 10 -12 10 -18z m-73 -19 c-3 -7 -5 -2 -5 12 0 14
2 19 5 13 2 -7 2 -19 0 -25z m263 -150 l-1 -83 -20 24 c-18 21 -18 26 -4 41 8
9 15 35 15 58 0 23 2 42 5 42 3 0 5 -37 5 -82z m-367 -3 c14 -25 22 -45 18
-45 -4 0 -20 23 -36 51 -15 29 -23 49 -17 45 6 -3 22 -26 35 -51z m-355 -56
c20 -7 37 -7 49 -1 14 7 31 1 71 -25 48 -31 52 -36 36 -47 -14 -10 -15 -20 -9
-52 9 -41 14 -114 8 -114 -9 0 -183 84 -180 87 2 1 17 -1 34 -6 21 -6 35 -5
43 2 10 9 11 9 6 0 -4 -8 4 -11 26 -10 47 3 42 27 -10 55 -33 18 -41 28 -37
42 5 14 -4 26 -34 46 -55 36 -55 41 -3 23z m392 -14 c0 -8 -2 -15 -4 -15 -2 0
-6 7 -10 15 -3 8 -1 15 4 15 6 0 10 -7 10 -15z m-547 -33 c23 -15 73 -43 110
-61 38 -18 66 -35 63 -38 -3 -3 -35 9 -72 26 -37 17 -68 30 -70 28 -2 -2 19
-20 48 -41 49 -37 123 -77 201 -109 20 -9 37 -21 37 -26 0 -15 -164 63 -225
107 -49 35 -155 142 -140 142 3 0 25 -13 48 -28z m377 -54 c0 -12 -6 -9 -26
13 -19 22 -19 22 4 8 12 -8 22 -17 22 -21z m239 6 c6 4 17 -7 26 -25 15 -28
15 -32 1 -48 -9 -10 -16 -24 -16 -32 0 -8 -14 2 -29 21 -22 26 -27 38 -19 48
8 9 7 20 -1 40 -13 26 -12 26 8 8 11 -10 24 -15 30 -12z m237 -6 l29 -31 -37
28 c-39 28 -45 35 -30 35 5 0 21 -14 38 -32z m-487 -19 c57 -36 71 -63 16 -30
l-35 20 15 -37 c9 -20 25 -50 36 -65 23 -31 19 -48 -6 -27 -8 7 -15 8 -15 2 0
-5 7 -15 15 -22 8 -7 15 -19 15 -28 0 -28 13 -3 15 29 2 18 -6 46 -16 63 -21
35 -24 51 -8 41 5 -4 18 0 27 8 16 14 20 13 47 -11 48 -42 126 -139 197 -242
68 -98 134 -167 206 -215 40 -26 43 -27 109 -17 37 6 100 13 138 16 66 6 68 5
38 -8 -35 -16 -56 -47 -47 -70 8 -20 7 -20 46 4 18 11 43 20 56 20 19 0 23 -5
20 -26 -3 -31 -12 -37 -91 -60 -41 -12 -67 -27 -91 -54 -32 -35 -34 -36 -45
-17 -13 19 -13 19 -37 -4 l-24 -24 15 -110 c28 -201 28 -205 18 -205 -15 0
-27 19 -47 72 -11 29 -22 45 -30 42 -14 -6 -37 42 -61 129 -13 45 -23 60 -46
72 -17 9 -29 11 -29 5 0 -6 11 -15 25 -20 14 -5 25 -17 25 -27 0 -26 48 -167
65 -189 13 -17 14 -18 15 -1 0 24 20 21 20 -3 0 -44 59 -140 60 -97 0 6 5 4
11 -5 24 -42 24 -8 1 158 -21 151 -22 178 -10 190 12 12 16 2 26 -73 6 -49 14
-130 17 -181 8 -127 29 -169 111 -222 65 -42 90 -83 82 -132 -4 -23 -4 -23
-15 2 -6 14 -18 32 -26 39 -14 11 -15 6 -12 -38 2 -28 0 -51 -6 -51 -5 0 -9 8
-9 19 0 10 -6 24 -14 30 -8 7 -22 28 -31 48 l-17 35 -28 -31 c-16 -17 -33 -31
-39 -31 -5 0 -11 -8 -14 -18 -4 -16 -4 -16 -12 1 -5 13 -1 28 13 47 32 42 36
73 17 114 -20 41 -41 60 -30 27 10 -33 -1 -25 -35 25 -19 26 -37 43 -45 40 -8
-3 -18 7 -25 24 -6 16 -27 52 -46 81 -18 29 -41 78 -49 108 -8 31 -20 74 -26
95 -6 22 -14 35 -17 29 -5 -6 -17 -6 -36 2 -27 11 -28 13 -10 23 16 9 17 14 6
31 -11 20 -10 21 23 21 23 0 37 6 44 18 11 21 12 21 -74 25 -33 1 -65 6 -72
10 -6 4 -18 4 -26 1 -8 -3 -18 -1 -22 5 -3 6 0 11 8 11 20 0 31 31 15 41 -7 5
-31 6 -53 3 l-40 -5 30 14 c17 8 44 26 61 40 35 29 54 36 34 12 -18 -22 6 -48
37 -40 18 4 23 1 23 -14 0 -31 29 -41 75 -25 69 23 79 63 17 64 -19 0 -22 4
-17 20 5 17 1 21 -24 26 -18 4 -28 11 -25 19 8 19 -23 38 -56 33 -29 -4 -29
-4 -13 15 17 18 17 19 -2 33 -10 8 -28 14 -38 14 -16 0 -17 3 -7 15 7 8 9 22
6 31 -5 14 -16 15 -59 10 -51 -6 -52 -6 -24 10 45 25 31 45 -44 64 -36 9 -80
27 -96 40 -35 28 -68 91 -60 113 3 9 -1 36 -8 61 -8 25 -12 46 -10 46 2 0 26
-14 54 -31z m466 4 c18 -16 45 -36 60 -46 26 -19 26 -19 22 -129 -4 -102 5
-180 29 -242 7 -19 7 -19 -24 0 -90 52 -227 221 -202 248 5 5 6 16 3 25 -5 13
-2 12 16 -3 16 -15 24 -17 33 -8 8 8 19 0 41 -31 42 -58 62 -70 73 -43 5 12
-13 46 -61 114 -20 28 -35 28 -42 1 -5 -18 -11 -12 -39 37 -43 75 -43 84 1 45
20 -17 43 -31 53 -31 9 -1 30 -19 45 -41 30 -43 54 -47 49 -9 -1 13 3 27 10
31 7 4 10 9 8 11 -26 17 -70 36 -70 30 0 -4 11 -24 25 -44 26 -39 30 -48 18
-48 -5 0 -17 15 -29 33 -25 39 -65 127 -57 127 3 0 20 -12 38 -27z m-738 -59
c55 -38 214 -115 224 -108 5 3 27 -10 49 -29 38 -32 96 -57 136 -57 11 0 25
-4 33 -9 11 -7 9 -11 -8 -20 -34 -19 -88 -3 -127 37 -19 19 -34 29 -34 22 0
-20 69 -80 93 -80 18 -1 19 -2 6 -10 -8 -5 -26 -11 -40 -14 -13 -3 -44 -10
-69 -17 -73 -18 -122 -7 -169 36 -35 33 -88 105 -76 105 2 0 15 -4 29 -10 14
-5 26 -7 26 -4 0 2 -20 26 -45 52 -25 26 -45 51 -45 56 0 6 5 5 12 -2 25 -25
31 -11 7 16 -61 67 -62 77 -2 36z m743 -105 c43 -64 45 -69 31 -69 -10 0 -81
105 -81 120 0 19 10 10 50 -51z m-244 -175 c-22 -16 -122 -19 -131 -5 -5 9 29
16 110 24 39 3 44 -1 21 -19z m-118 -24 c10 -1 5 -6 -13 -14 -35 -15 -43 -13
-25 9 18 21 5 19 -38 -9 -38 -24 -172 -60 -172 -46 0 17 34 34 73 35 24 1 65
14 92 28 41 21 51 23 58 11 4 -8 16 -14 25 -14z m35 -15 c-12 -33 -147 -85
-218 -85 l-40 1 24 19 c25 21 46 27 36 10 -3 -5 -2 -10 3 -10 20 0 154 49 175
64 28 19 28 19 20 1z m89 -5 c35 0 48 -4 45 -12 -2 -9 -22 -12 -63 -9 -32 1
-61 5 -63 7 -2 2 2 11 10 20 8 10 15 12 17 5 2 -6 26 -11 54 -11z m-20 -40
c16 0 17 -3 8 -20 -6 -11 -8 -25 -5 -30 8 -13 -28 -30 -73 -34 -22 -2 -48 -9
-59 -15 -28 -14 -133 -30 -133 -19 0 11 45 28 75 28 14 0 45 7 71 16 39 13 48
13 55 2 7 -11 9 -11 9 0 0 8 -9 16 -20 19 -16 4 -18 8 -9 19 16 20 8 18 -42
-10 -41 -23 -167 -52 -178 -41 -12 13 23 29 69 31 60 3 136 30 145 51 4 11 14
14 36 9 18 -3 40 -6 51 -6z m128 -28 c0 -4 -7 -18 -16 -31 -16 -22 -16 -23 5
-17 11 3 30 9 41 12 25 7 26 -12 2 -25 -23 -12 -92 -25 -92 -17 0 4 8 18 17
32 l17 26 -40 -4 c-31 -2 -39 1 -42 15 -3 14 5 17 52 17 31 0 56 -3 56 -8z
m-115 -61 c-11 -10 -50 -31 -87 -46 -38 -15 -68 -30 -68 -33 0 -3 39 -2 88 1
59 5 82 4 70 -3 -22 -13 -123 -26 -177 -22 -40 3 -42 4 -25 18 18 14 18 14 -5
12 -13 -2 -26 3 -28 10 -3 8 7 12 30 12 36 0 125 28 173 54 39 21 53 20 29 -3z
m710 -31 c16 -16 26 -33 22 -37 -12 -11 -59 16 -54 31 3 7 0 19 -6 25 -7 7 -7
11 -1 11 6 0 23 -13 39 -30z m-67 8 c19 -19 14 -24 -23 -25 -20 -1 -46 -8 -60
-17 -31 -20 -36 -20 -28 0 3 9 24 25 47 35 49 22 49 22 64 7z m-418 -8 c0 -8
-40 -26 -82 -36 -30 -7 -33 -2 -19 24 6 12 23 17 55 18 25 1 46 -2 46 -6z
m450 -40 c0 -24 38 -29 76 -10 l39 19 28 -30 c15 -16 27 -34 27 -40 0 -15 -69
-83 -77 -76 -3 4 0 13 6 21 10 12 7 18 -18 30 -16 9 -46 16 -65 16 -44 0 -55
15 -18 25 27 7 27 7 5 18 -23 10 -32 37 -13 37 6 0 10 -4 10 -10z m-800 -57
c0 -5 24 -7 53 -5 30 2 67 2 83 0 25 -3 21 -5 -26 -17 -30 -8 -63 -22 -73 -32
-9 -10 -24 -16 -32 -13 -17 7 -20 24 -5 24 6 0 10 5 10 10 0 6 -17 10 -37 10
-36 1 -37 2 -19 15 21 16 46 20 46 8z m300 -22 c0 -4 -30 -11 -67 -14 -38 -2
-88 -14 -113 -26 l-45 -21 65 6 c36 3 73 8 83 10 9 3 17 1 17 -4 0 -5 -27 -15
-60 -21 -33 -7 -60 -14 -60 -15 0 -2 30 -9 68 -16 67 -11 102 -31 102 -57 0
-17 -15 -17 -30 2 -18 22 -105 45 -169 45 -50 1 -54 2 -38 14 18 14 17 14 -2
21 -12 3 -21 10 -21 13 0 9 53 38 105 56 44 16 165 21 165 7z m495 -6 c22 -8
51 -15 63 -15 15 0 22 -5 20 -12 -8 -22 -39 -21 -91 3 -37 18 -51 21 -55 11
-2 -6 -13 -12 -23 -12 -43 0 -87 -39 -120 -106 -16 -32 -16 -34 3 -39 16 -6
18 -13 13 -53 -4 -26 -9 -54 -11 -63 -2 -9 5 -24 16 -34 16 -14 30 -17 75 -12
49 5 59 3 85 -20 34 -28 41 -49 11 -33 -11 5 -35 10 -53 10 -30 -1 -31 -2 -13
-12 21 -12 44 -38 45 -51 0 -4 -12 -4 -27 -1 -41 10 -90 37 -76 41 7 2 22 -1
33 -7 32 -17 35 -6 5 14 -37 24 -51 9 -50 -58 0 -31 -3 -56 -7 -56 -10 0 -38
61 -38 84 0 12 -7 32 -16 44 -18 26 -21 159 -4 176 15 15 12 26 -5 20 -12 -5
-13 3 -8 48 4 40 12 60 32 79 36 36 64 49 100 49 17 0 31 5 31 10 0 13 17 12
65 -5z m-560 -154 c76 -34 100 -83 48 -96 -16 -3 -50 -20 -77 -36 -35 -22 -47
-26 -42 -14 3 9 2 14 -3 10 -5 -3 -11 1 -14 7 -5 17 -55 -6 -119 -56 -27 -20
-48 -32 -48 -27 0 4 18 21 39 35 50 35 57 53 31 81 -11 12 -20 24 -20 27 0 4
21 11 48 17 26 5 72 19 102 30 42 15 49 20 28 20 -15 1 -39 -4 -54 -9 -84 -32
-314 -80 -384 -80 l-34 0 21 -22 c22 -21 22 -21 63 -3 22 10 44 15 48 10 4 -4
3 -9 -3 -12 -25 -9 -37 -22 -31 -32 11 -18 33 -13 113 24 42 20 80 32 85 27 4
-4 -23 -26 -62 -48 -38 -21 -65 -41 -60 -42 6 -2 40 15 76 38 35 24 67 40 71
36 3 -3 4 -7 2 -9 -31 -21 -119 -101 -119 -108 0 -22 33 -20 58 3 45 42 122
90 138 86 9 -2 -10 -20 -48 -45 -35 -23 -76 -54 -91 -69 l-29 -27 -26 20 c-15
11 -31 29 -37 41 -5 11 -20 24 -33 27 -13 3 -37 15 -52 27 -15 11 -33 17 -39
13 -11 -6 -119 71 -121 86 0 3 55 11 123 18 136 14 333 46 369 60 32 13 38 13
83 -8z m-350 -21 c-3 -5 -16 -10 -28 -9 -21 0 -21 1 -2 9 28 12 37 12 30 0z
m66 -85 c-40 -19 -77 -35 -81 -35 -5 0 -3 11 3 24 9 19 23 26 67 34 88 15 89
13 11 -23z m372 -8 c3 -9 -15 -23 -54 -41 -36 -16 -69 -41 -86 -63 -25 -32
-28 -45 -28 -107 l0 -71 -54 32 c-30 18 -58 33 -62 33 -10 0 -38 58 -31 64 3
3 15 6 27 6 14 0 31 13 46 35 13 19 27 35 32 35 16 0 5 -24 -29 -66 -20 -25
-35 -46 -33 -47 2 -2 19 -14 37 -26 l32 -22 0 41 c0 84 42 142 135 185 60 28
61 29 68 12z m-173 -62 c-7 -9 -15 -13 -17 -11 -7 7 7 26 19 26 6 0 6 -6 -2
-15z m-54 -132 c-11 -11 -17 4 -9 23 7 18 8 18 11 1 2 -10 1 -21 -2 -24z
m-189 -95 c-3 -7 -5 -2 -5 12 0 14 2 19 5 13 2 -7 2 -19 0 -25z m344 -193 c10
-20 10 -20 -6 0 -9 11 -21 29 -26 40 -10 20 -10 20 6 0 9 -11 21 -29 26 -40z
m33 -51 c5 -14 4 -15 -9 -4 -17 14 -19 20 -6 20 5 0 12 -7 15 -16z m47 -79
c10 -20 10 -20 -6 0 -9 11 -21 29 -26 40 -10 20 -10 20 6 0 9 -11 21 -29 26
-40z m-424 3 c-3 -8 -6 -5 -6 6 -1 11 2 17 5 13 3 -3 4 -12 1 -19z m3 -53 c0
-26 -4 -35 -17 -35 -13 0 -14 3 -5 12 7 7 12 22 12 35 0 13 2 23 5 23 3 0 5
-16 5 -35z m483 -34 c-4 -7 -34 21 -45 43 -7 14 -2 11 18 -9 16 -16 28 -32 27
-34z"/>
<path d="M1543 488 c22 -36 21 -55 -4 -98 l-20 -35 35 38 c19 20 42 37 50 37
8 0 32 -15 52 -32 21 -18 35 -26 32 -18 -2 8 -26 29 -52 47 -27 17 -62 44 -79
60 l-31 28 17 -27z m47 -42 c0 -3 -4 -8 -10 -11 -5 -3 -10 -1 -10 4 0 6 5 11
10 11 6 0 10 -2 10 -4z"/>
<path d="M1622 375 c11 -20 23 -34 25 -31 7 7 -26 66 -37 66 -5 0 0 -16 12
-35z"/>
<path d="M660 1540 c25 -22 55 -43 68 -46 12 -4 22 -11 22 -16 0 -9 -20 -7
-67 8 -16 5 -16 4 2 -11 28 -23 111 -65 129 -65 8 0 18 -5 22 -11 5 -9 -4 -10
-32 -4 -21 4 -56 11 -76 15 -53 10 -47 -4 14 -34 55 -27 158 -37 158 -15 0 6
-7 9 -15 5 -20 -7 -62 8 -47 18 22 13 12 25 -38 48 -47 22 -64 38 -38 38 6 0
3 10 -8 21 -19 22 -19 22 6 14 41 -12 19 1 -65 39 l-80 36 45 -40z m157 -166
c-3 -3 -12 -4 -19 -1 -8 3 -5 6 6 6 11 1 17 -2 13 -5z"/>
<path d="M1565 640 c9 -10 21 -34 26 -52 8 -32 8 -32 6 9 -1 23 0 41 3 41 3 0
12 1 20 2 17 2 -25 18 -54 19 -18 1 -18 0 -1 -19z"/>
<path d="M1650 650 c0 -5 14 -8 30 -7 44 5 49 17 7 17 -20 0 -37 -4 -37 -10z"/>
</g>
</svg>
