<?xml version="1.0" standalone="no"?>
<!DOCTYPE svg PUBLIC "-//W3C//DTD SVG 20010904//EN"
 "http://www.w3.org/TR/2001/REC-SVG-20010904/DTD/svg10.dtd">
<svg version="1.0" xmlns="http://www.w3.org/2000/svg"
 width="225.000000pt" height="225.000000pt" viewBox="0 0 225.000000 225.000000"
 preserveAspectRatio="xMidYMid meet">
<metadata>
Created by potrace 1.10, written by Peter Selinger 2001-2011
</metadata>
<g transform="translate(0.000000,225.000000) scale(0.100000,-0.100000)"
fill="#000000" stroke="none">
<path d="M2 1933 l2 -308 5 295 c3 162 10 301 14 308 5 8 3 12 -7 12 -13 0
-15 -40 -14 -307z"/>
<path d="M60 2189 c0 -5 5 -7 10 -4 6 3 10 8 10 11 0 2 -4 4 -10 4 -5 0 -10
-5 -10 -11z"/>
<path d="M1788 2163 c6 -2 18 -2 25 0 6 3 1 5 -13 5 -14 0 -19 -2 -12 -5z"/>
<path d="M2242 2080 c0 -14 2 -19 5 -12 2 6 2 18 0 25 -3 6 -5 1 -5 -13z"/>
<path d="M733 2083 c9 -2 23 -2 30 0 6 3 -1 5 -18 5 -16 0 -22 -2 -12 -5z"/>
<path d="M71 2024 c0 -11 3 -14 6 -6 3 7 2 16 -1 19 -3 4 -6 -2 -5 -13z"/>
<path d="M2241 1994 c0 -11 3 -14 6 -6 3 7 2 16 -1 19 -3 4 -6 -2 -5 -13z"/>
<path d="M2183 1890 c0 -25 2 -35 4 -22 2 12 2 32 0 45 -2 12 -4 2 -4 -23z"/>
<path d="M71 1834 c0 -11 3 -14 6 -6 3 7 2 16 -1 19 -3 4 -6 -2 -5 -13z"/>
<path d="M1010 1832 c-19 -10 -38 -19 -42 -20 -5 -1 -22 -11 -38 -21 -24 -14
-28 -20 -16 -24 9 -4 16 -3 16 2 0 4 29 20 65 36 56 23 74 27 123 21 65 -7 80
-10 105 -21 10 -4 20 -5 23 -2 9 9 -49 34 -68 30 -9 -2 -19 1 -23 6 -10 17
-106 12 -145 -7z"/>
<path d="M1260 1791 c0 -5 -8 -12 -17 -14 -10 -2 -3 -2 15 0 19 2 32 0 29 -4
-3 -5 3 -14 13 -21 14 -9 21 -8 30 3 10 12 9 15 -8 15 -11 0 -25 7 -32 15 -14
17 -30 20 -30 6z"/>
<path d="M800 1759 c0 -5 5 -7 10 -4 6 3 10 8 10 11 0 2 -4 4 -10 4 -5 0 -10
-5 -10 -11z"/>
<path d="M1395 1760 c4 -6 11 -8 16 -5 14 9 11 15 -7 15 -8 0 -12 -5 -9 -10z"/>
<path d="M1360 1754 c0 -6 9 -29 20 -52 11 -22 20 -53 20 -67 0 -14 5 -25 10
-25 6 0 10 -6 10 -14 0 -8 5 -16 11 -18 6 -2 11 -20 12 -40 1 -30 3 -33 15
-22 17 18 23 18 16 1 -2 -7 2 -30 11 -50 9 -21 13 -42 10 -47 -4 -6 -1 -10 4
-10 6 0 11 -5 11 -10 0 -6 -11 -8 -25 -4 -27 7 -35 -10 -10 -20 20 -7 9 -66
-16 -85 -11 -7 -19 -18 -19 -23 0 -5 11 -1 25 9 15 11 24 28 25 46 0 15 3 27
8 27 4 0 12 15 18 34 8 28 7 44 -6 79 -9 24 -20 63 -24 86 -8 49 -46 132 -58
125 -4 -3 -8 1 -8 9 0 7 -13 29 -30 47 -16 18 -30 29 -30 24z m87 -144 c3 -16
9 -30 14 -30 5 0 9 -9 9 -20 0 -11 -4 -20 -10 -20 -5 0 -10 8 -10 18 0 9 -7
30 -15 46 -18 34 -18 36 -5 36 6 0 13 -13 17 -30z"/>
<path d="M849 1711 c-50 -49 -110 -178 -123 -265 -1 -6 -5 -16 -9 -22 -3 -6
-4 -14 0 -18 14 -14 23 -4 24 27 0 17 13 66 28 107 25 68 30 75 53 74 20 -1
25 3 20 14 -4 11 -7 12 -10 4 -5 -17 -22 -15 -22 3 0 8 4 15 9 15 5 0 13 9 16
21 5 14 12 18 23 14 9 -3 13 -3 9 1 -4 4 2 18 14 30 35 37 6 33 -32 -5z"/>
<path d="M2242 1700 c0 -14 2 -19 5 -12 2 6 2 18 0 25 -3 6 -5 1 -5 -13z"/>
<path d="M1470 1665 c7 -9 15 -13 17 -11 7 7 -7 26 -19 26 -6 0 -6 -6 2 -15z"/>
<path d="M840 1659 c0 -5 5 -7 10 -4 6 3 10 8 10 11 0 2 -4 4 -10 4 -5 0 -10
-5 -10 -11z"/>
<path d="M746 1645 c4 -8 8 -15 10 -15 2 0 4 7 4 15 0 8 -4 15 -10 15 -5 0 -7
-7 -4 -15z"/>
<path d="M860 1645 c0 -5 5 -17 10 -25 5 -8 10 -10 10 -5 0 6 -5 17 -10 25 -5
8 -10 11 -10 5z"/>
<path d="M1350 1623 c0 -15 18 -35 23 -27 3 5 -1 15 -9 22 -8 7 -14 9 -14 5z"/>
<path d="M1680 1620 c0 -5 5 -10 11 -10 5 0 7 5 4 10 -3 6 -8 10 -11 10 -2 0
-4 -4 -4 -10z"/>
<path d="M3 1530 c0 -47 2 -66 4 -42 2 23 2 61 0 85 -2 23 -4 4 -4 -43z"/>
<path d="M730 1586 c-15 -39 -12 -46 6 -13 9 16 13 31 10 34 -3 3 -10 -6 -16
-21z"/>
<path d="M787 1550 c-3 -11 -1 -20 4 -20 5 0 9 9 9 20 0 11 -2 20 -4 20 -2 0
-6 -9 -9 -20z"/>
<path d="M1328 1523 c7 -3 16 -2 19 1 4 3 -2 6 -13 5 -11 0 -14 -3 -6 -6z"/>
<path d="M1585 1520 c3 -5 8 -10 11 -10 2 0 4 5 4 10 0 6 -5 10 -11 10 -5 0
-7 -4 -4 -10z"/>
<path d="M1911 1514 c0 -11 3 -14 6 -6 3 7 2 16 -1 19 -3 4 -6 -2 -5 -13z"/>
<path d="M907 1500 c-14 -11 -35 -20 -46 -20 -12 0 -21 -4 -21 -10 0 -5 -9
-10 -20 -10 -11 0 -20 -4 -20 -9 0 -5 25 -3 56 4 42 9 61 10 79 1 29 -13 33
-26 8 -26 -32 0 -6 -10 35 -14 31 -2 39 0 35 11 -3 9 -13 11 -27 7 -11 -4 -18
-3 -14 1 8 8 -15 35 -30 35 -6 0 -12 7 -16 15 -4 10 1 15 14 15 11 0 20 -5 20
-11 0 -5 5 -7 10 -4 6 3 10 11 10 17 0 6 -3 8 -6 5 -4 -3 -15 -2 -24 3 -13 7
-25 4 -43 -10z"/>
<path d="M791 1494 c0 -11 3 -14 6 -6 3 7 2 16 -1 19 -3 4 -6 -2 -5 -13z"/>
<path d="M1167 1479 c-31 -38 -34 -49 -11 -49 8 0 13 3 10 8 -9 15 20 41 42
35 12 -3 19 -9 16 -14 -3 -5 10 -9 28 -9 25 0 29 -3 18 -10 -8 -5 -10 -10 -5
-10 6 0 17 5 25 10 13 9 13 11 0 20 -8 6 -22 8 -32 6 -10 -2 -18 4 -22 16 -3
13 -10 19 -20 15 -8 -3 -16 -1 -18 4 -2 6 -16 -4 -31 -22z"/>
<path d="M1451 1468 c-1 -21 15 -32 25 -17 4 7 3 9 -4 5 -6 -3 -13 2 -15 11
-4 16 -5 16 -6 1z"/>
<path d="M1188 1443 c7 -3 16 -2 19 1 4 3 -2 6 -13 5 -11 0 -14 -3 -6 -6z"/>
<path d="M1335 1440 c28 -12 37 -12 30 0 -3 6 -16 10 -28 9 -21 0 -21 -1 -2
-9z"/>
<path d="M1426 1435 c18 -13 17 -14 -17 -15 -31 0 -37 -4 -41 -25 -6 -29 8
-34 17 -6 3 12 15 19 31 19 18 0 24 -5 20 -15 -3 -8 -1 -11 4 -8 18 11 0 65
-23 65 -6 0 -2 -7 9 -15z"/>
<path d="M1580 1440 c0 -5 5 -10 10 -10 6 0 10 5 10 10 0 6 -4 10 -10 10 -5 0
-10 -4 -10 -10z"/>
<path d="M3 1405 c0 -22 2 -30 4 -17 2 12 2 30 0 40 -3 9 -5 -1 -4 -23z"/>
<path d="M798 1428 c-21 -6 -38 -15 -38 -20 0 -6 7 -7 18 -3 9 5 44 14 77 20
54 12 56 13 20 13 -22 0 -57 -5 -77 -10z"/>
<path d="M653 1423 c-16 -6 8 -33 29 -33 10 0 10 2 -1 9 -7 5 -10 14 -7 20 7
11 0 13 -21 4z"/>
<path d="M1120 1415 c0 -11 -13 -15 -47 -16 -158 -3 -169 -5 -218 -29 -27 -14
-51 -30 -52 -36 -5 -16 44 -38 87 -38 39 0 90 26 90 45 0 6 -7 4 -15 -5 -28
-28 -134 -35 -142 -10 -5 14 29 24 85 24 23 0 42 4 42 9 0 5 10 7 23 5 20 -4
21 -4 2 5 -25 12 -48 14 -42 4 3 -5 -9 -9 -26 -10 l-32 -2 27 15 c19 10 41 12
68 8 22 -4 40 -8 40 -9 0 -23 -36 -78 -56 -85 -80 -31 -172 6 -190 74 -5 21
-12 26 -36 26 -17 0 -27 -4 -23 -10 4 -6 11 -8 16 -5 5 4 9 1 9 -5 0 -6 4 -9
9 -6 4 3 16 -12 26 -34 10 -22 20 -38 23 -36 2 3 11 -1 19 -9 16 -17 148 -21
157 -6 4 5 22 8 41 7 19 -2 32 1 29 6 -3 5 -14 6 -25 3 -22 -7 -26 10 -5 22 7
4 17 22 23 38 8 26 15 30 44 30 32 0 34 -3 43 -41 6 -29 16 -45 31 -52 36 -17
92 -25 107 -16 7 5 33 16 57 24 25 8 47 21 49 28 3 9 -9 6 -34 -7 -26 -14 -50
-19 -74 -16 -29 4 -31 3 -10 -4 21 -8 19 -9 -20 -10 -54 0 -80 17 -80 53 0 14
-4 26 -10 26 -5 0 -10 7 -10 15 0 8 7 15 15 15 8 0 15 4 15 9 0 5 -7 11 -15
15 -9 3 -15 0 -15 -9z"/>
<path d="M1320 1415 c-11 -13 -10 -14 4 -9 9 3 16 10 16 15 0 13 -6 11 -20 -6z"/>
<path d="M2242 1395 c0 -16 2 -22 5 -12 2 9 2 23 0 30 -3 6 -5 -1 -5 -18z"/>
<path d="M1173 1396 c-47 -16 -19 -33 58 -35 35 -1 82 -6 104 -11 50 -12 55
-12 55 -1 0 5 -15 11 -32 14 -18 2 -46 9 -63 15 -77 26 -91 28 -122 18z m34
-12 c-3 -3 -12 -4 -19 -1 -8 3 -5 6 6 6 11 1 17 -2 13 -5z m40 -10 c-3 -3 -12
-4 -19 -1 -8 3 -5 6 6 6 11 1 17 -2 13 -5z"/>
<path d="M808 1393 c7 -3 16 -2 19 1 4 3 -2 6 -13 5 -11 0 -14 -3 -6 -6z"/>
<path d="M791 1364 c0 -11 3 -14 6 -6 3 7 2 16 -1 19 -3 4 -6 -2 -5 -13z"/>
<path d="M678 1363 c7 -3 16 -2 19 1 4 3 -2 6 -13 5 -11 0 -14 -3 -6 -6z"/>
<path d="M1081 1354 c0 -11 3 -14 6 -6 3 7 2 16 -1 19 -3 4 -6 -2 -5 -13z"/>
<path d="M1542 1360 c-22 -9 -42 -46 -42 -76 0 -12 3 -12 14 -2 7 7 13 19 13
28 0 33 4 40 18 40 18 0 20 -16 3 -23 -10 -4 -10 -6 0 -6 8 -1 12 -21 13 -63
1 -80 17 -49 18 35 1 39 -3 57 -11 57 -9 0 -8 4 2 10 19 12 3 12 -28 0z"/>
<path d="M697 1344 c-3 -3 1 -26 8 -51 8 -28 11 -65 8 -96 -4 -33 -3 -48 4
-44 12 7 24 57 14 57 -3 0 -6 15 -6 33 0 17 -4 45 -8 61 -7 26 -6 28 7 17 10
-9 16 -10 16 -3 0 13 -35 34 -43 26z"/>
<path d="M2242 1330 c0 -14 2 -19 5 -12 2 6 2 18 0 25 -3 6 -5 1 -5 -13z"/>
<path d="M1160 1331 c0 -5 7 -11 15 -15 9 -3 15 0 15 9 0 8 -7 15 -15 15 -8 0
-15 -4 -15 -9z"/>
<path d="M1248 1329 c12 -4 32 -5 45 0 17 7 13 9 -23 9 -36 0 -40 -2 -22 -9z"/>
<path d="M1425 1330 c-3 -5 -1 -10 4 -10 6 0 11 5 11 10 0 6 -2 10 -4 10 -3 0
-8 -4 -11 -10z"/>
<path d="M648 1310 c9 -24 25 -28 30 -8 2 9 0 8 -7 -2 -9 -13 -11 -13 -11 2 0
9 -4 20 -10 23 -6 4 -7 -2 -2 -15z"/>
<path d="M1110 1276 c0 -8 4 -17 9 -20 5 -4 7 3 4 14 -6 23 -13 26 -13 6z"/>
<path d="M2243 1240 c0 -30 2 -43 4 -27 2 15 2 39 0 55 -2 15 -4 2 -4 -28z"/>
<path d="M1010 1250 c0 -5 5 -10 10 -10 6 0 10 5 10 10 0 6 -4 10 -10 10 -5 0
-10 -4 -10 -10z"/>
<path d="M1184 1244 c3 -9 6 -22 6 -30 0 -8 4 -13 10 -11 5 1 25 -16 44 -38
34 -39 35 -40 13 -47 -17 -5 -15 -7 10 -5 18 1 33 -2 33 -6 1 -24 -1 -28 -10
-22 -5 3 -10 -1 -10 -9 0 -10 -9 -16 -22 -16 -13 1 -43 -2 -68 -5 -48 -6 -52
-6 -118 -2 -24 1 -46 -1 -48 -5 -7 -11 -86 -1 -94 12 -4 7 -10 11 -14 11 -31
-4 -46 1 -46 17 0 15 2 15 11 2 9 -13 10 -12 5 3 -5 17 11 43 46 75 9 8 14 21
11 29 -3 8 0 19 8 25 11 8 10 9 -4 4 -10 -3 -26 -6 -35 -6 -13 0 -14 -2 -4 -9
12 -7 12 -12 0 -32 -7 -13 -23 -33 -35 -44 -33 -29 -30 -70 5 -84 15 -6 42
-18 60 -27 19 -8 31 -10 27 -4 -4 6 14 10 49 10 49 0 56 -3 56 -19 0 -11 5
-23 10 -26 6 -3 10 4 10 18 0 22 5 25 52 30 32 4 57 2 65 -5 10 -8 22 -6 48 8
19 10 35 22 35 26 0 5 6 7 13 5 7 -1 13 11 15 31 2 21 -1 32 -10 32 -7 0 -22
12 -33 27 -11 15 -32 40 -47 55 -16 15 -28 32 -28 38 0 5 -5 10 -11 10 -6 0
-8 -7 -5 -16z"/>
<path d="M1470 1255 c-1 -5 -3 -16 -4 -23 0 -7 -6 -16 -13 -20 -8 -5 -7 -15 3
-37 l14 -30 -3 32 c-2 18 1 34 6 36 5 1 7 14 4 27 -2 14 -5 21 -7 15z"/>
<path d="M1498 1250 c-3 -8 -2 -22 2 -30 5 -8 11 -36 15 -63 6 -39 5 -46 -7
-42 -9 3 -19 -3 -25 -17 -20 -41 -23 -58 -10 -58 16 0 32 13 32 25 0 6 13 34
28 63 16 30 26 56 23 59 -3 3 -10 -5 -15 -18 -9 -23 -10 -23 -10 -2 -1 12 4
25 9 28 6 3 10 14 10 25 0 13 -5 17 -19 13 -13 -3 -20 1 -23 14 -3 14 -5 15
-10 3z"/>
<path d="M970 1240 c0 -5 5 -10 10 -10 6 0 10 5 10 10 0 6 -4 10 -10 10 -5 0
-10 -4 -10 -10z"/>
<path d="M1120 1230 c0 -5 7 -10 15 -10 8 0 15 5 15 10 0 6 -7 10 -15 10 -8 0
-15 -4 -15 -10z"/>
<path d="M657 1223 c-4 -3 -7 -18 -6 -32 1 -26 1 -25 10 3 9 31 7 41 -4 29z"/>
<path d="M995 1220 c-3 -5 -1 -10 4 -10 6 0 11 5 11 10 0 6 -2 10 -4 10 -3 0
-8 -4 -11 -10z"/>
<path d="M881 1194 c0 -11 3 -14 6 -6 3 7 2 16 -1 19 -3 4 -6 -2 -5 -13z"/>
<path d="M1320 1191 c0 -12 6 -21 15 -21 8 0 15 3 15 6 0 3 -7 12 -15 20 -13
14 -15 13 -15 -5z"/>
<path d="M2002 1170 c-5 -23 -6 -40 -1 -40 5 0 9 9 9 19 0 11 5 23 10 26 12 8
13 35 1 35 -5 0 -13 -18 -19 -40z"/>
<path d="M1168 1183 c-14 -2 -32 -11 -40 -20 -11 -14 -10 -15 12 -8 46 14 70
24 70 30 0 3 -3 4 -7 4 -5 -1 -20 -4 -35 -6z"/>
<path d="M960 1170 c0 -8 54 -30 74 -30 16 0 -25 26 -51 33 -13 3 -23 1 -23
-3z"/>
<path d="M2071 1164 c0 -11 3 -14 6 -6 3 7 2 16 -1 19 -3 4 -6 -2 -5 -13z"/>
<path d="M0 1154 c0 -13 9 -15 45 -12 28 2 41 0 35 -6 -6 -6 -10 -14 -10 -19
0 -5 7 -1 16 7 20 21 40 20 94 -5 54 -24 82 -48 73 -62 -3 -5 -2 -7 4 -4 18
11 56 -39 49 -65 -3 -12 -3 -17 0 -10 8 18 27 15 20 -4 -4 -10 -2 -13 6 -8 8
5 9 2 5 -10 -4 -9 -3 -15 2 -12 5 3 12 -1 15 -10 9 -23 7 -31 -3 -16 -6 11 -9
9 -13 -6 -5 -16 -1 -20 13 -17 16 3 17 1 9 -15 -14 -26 -13 -50 1 -30 8 12 10
9 6 -13 -2 -15 -1 -30 4 -33 4 -2 6 -11 2 -19 -7 -20 14 -19 25 1 21 38 -80
295 -134 338 -37 30 -100 46 -186 46 -65 0 -78 -3 -78 -16z m230 -24 c8 -5 12
-11 9 -14 -3 -3 -14 1 -25 9 -21 16 -8 20 16 5z m60 -63 c0 -5 -9 2 -20 16
-11 14 -20 29 -20 33 0 4 9 -3 20 -16 11 -13 20 -27 20 -33z"/>
<path d="M1496 1151 c-4 -7 -5 -15 -2 -18 9 -9 19 4 14 18 -4 11 -6 11 -12 0z"/>
<path d="M2243 1115 c0 -27 2 -38 4 -22 2 15 2 37 0 50 -2 12 -4 0 -4 -28z"/>
<path d="M1360 1135 c0 -8 4 -15 10 -15 5 0 7 7 4 15 -4 8 -8 15 -10 15 -2 0
-4 -7 -4 -15z"/>
<path d="M1170 1124 c25 -8 49 -12 55 -10 5 3 2 5 -8 5 -10 1 -16 4 -14 9 3 4
-14 7 -37 8 l-41 1 45 -13z"/>
<path d="M1436 1125 c-3 -9 -6 -22 -5 -28 0 -7 5 -1 10 12 5 13 8 26 5 28 -2
2 -6 -3 -10 -12z"/>
<path d="M734 1103 c3 -16 8 -52 11 -80 4 -29 11 -53 16 -53 6 0 8 15 5 33 -3
17 -8 53 -11 80 -4 26 -11 47 -16 47 -6 0 -8 -12 -5 -27z"/>
<path d="M953 1123 c-32 -4 -47 -23 -19 -23 8 0 22 -3 32 -7 12 -4 15 -3 10 5
-5 8 1 12 18 12 14 0 26 -4 26 -10 0 -14 67 -13 76 1 3 6 15 9 25 6 10 -3 22
-1 25 4 3 5 -23 9 -58 9 -35 0 -72 2 -83 4 -11 2 -35 1 -52 -1z"/>
<path d="M1556 1115 c-9 -26 -7 -32 5 -12 6 10 9 21 6 23 -2 3 -7 -2 -11 -11z"/>
<path d="M1592 1090 c0 -14 2 -19 5 -12 2 6 2 18 0 25 -3 6 -5 1 -5 -13z"/>
<path d="M1399 1073 c-1 -10 -1 -21 0 -25 0 -5 -3 -8 -9 -8 -5 0 -10 -5 -10
-10 0 -6 8 -5 20 2 11 7 16 14 11 16 -5 2 -7 12 -4 22 3 11 3 20 -1 20 -3 0
-7 -8 -7 -17z"/>
<path d="M160 1070 c0 -5 7 -10 16 -10 8 0 12 5 9 10 -3 6 -10 10 -16 10 -5 0
-9 -4 -9 -10z"/>
<path d="M1525 1060 c-3 -5 -1 -10 4 -10 6 0 11 5 11 10 0 6 -2 10 -4 10 -3 0
-8 -4 -11 -10z"/>
<path d="M365 1040 c3 -5 8 -10 11 -10 2 0 4 5 4 10 0 6 -5 10 -11 10 -5 0 -7
-4 -4 -10z"/>
<path d="M770 1042 c0 -5 7 -9 15 -9 8 0 15 4 15 9 0 4 -7 8 -15 8 -8 0 -15
-4 -15 -8z"/>
<path d="M1330 1048 c0 -4 7 -14 16 -23 13 -12 14 -19 4 -30 -7 -9 -8 -15 -2
-15 21 0 23 34 2 54 -11 11 -20 18 -20 14z"/>
<path d="M2243 1005 c0 -27 2 -38 4 -22 2 15 2 37 0 50 -2 12 -4 0 -4 -28z"/>
<path d="M857 1020 c-4 -16 -1 -20 11 -18 19 4 23 29 6 35 -6 2 -14 -6 -17
-17z"/>
<path d="M1296 1025 c-3 -10 -3 -22 3 -28 12 -12 20 4 11 27 -6 19 -7 19 -14
1z"/>
<path d="M1429 1023 c-1 -10 -1 -26 0 -35 3 -22 -7 -23 -31 -1 -11 9 -18 11
-18 5 0 -7 4 -12 9 -12 5 0 7 -10 5 -22 -4 -21 -4 -22 5 -3 9 18 10 18 10 -6
1 -25 -24 -99 -33 -99 -2 0 -2 19 1 42 4 26 2 39 -4 35 -5 -3 -10 -25 -11 -47
-1 -23 -5 -46 -8 -52 -4 -6 0 -14 7 -19 16 -10 21 -143 6 -173 -7 -14 -6 -16
4 -11 9 6 11 3 6 -9 -4 -9 -3 -15 2 -12 5 3 12 -2 15 -11 6 -14 8 -14 20 3 8
10 11 25 8 34 -3 8 -2 12 3 8 4 -4 15 -2 23 5 9 6 3 -7 -13 -31 -19 -29 -31
-39 -39 -33 -8 6 -15 2 -23 -15 -14 -29 4 -33 41 -9 20 14 24 14 29 1 7 -17
-20 -26 -78 -26 -33 0 -42 -5 -52 -27 -7 -15 -11 -29 -8 -31 8 -8 36 8 30 17
-7 12 26 31 54 31 12 0 21 -7 21 -15 0 -8 -8 -15 -17 -15 -15 0 -16 -2 -3 -10
11 -7 17 -4 24 10 10 21 31 26 41 11 3 -5 0 -21 -6 -35 -10 -21 -15 -23 -36
-15 -13 5 -32 9 -41 9 -9 -1 1 -7 23 -15 32 -12 42 -12 50 -2 6 7 18 11 29 9
13 -3 16 0 11 9 -6 9 -3 11 8 6 10 -3 17 -2 17 2 0 5 -6 12 -12 14 -7 3 2 4
19 4 34 -2 46 -16 16 -18 -11 0 -4 -7 16 -15 24 -11 37 -12 44 -5 6 6 7 11 3
11 -5 0 -3 6 4 14 9 12 8 15 -7 15 -10 -1 -38 3 -63 8 -42 8 -46 7 -57 -17
l-12 -25 5 28 c4 15 2 27 -3 27 -15 0 -11 29 4 34 8 3 11 11 7 17 -4 7 -1 10
7 7 8 -3 14 -14 13 -24 0 -15 7 -19 35 -19 20 -1 49 -3 65 -5 17 -3 31 0 33 6
2 7 -17 13 -53 16 -43 4 -62 10 -75 26 -17 21 -40 30 -38 15 1 -5 1 -15 0 -23
-1 -12 -3 -12 -11 2 -7 11 -6 26 1 45 9 25 12 26 20 11 6 -10 19 -18 31 -18
15 0 18 -4 14 -16 -5 -14 -4 -15 8 -4 10 8 33 10 68 6 51 -6 54 -5 70 24 14
25 15 30 3 30 -8 0 -15 -4 -15 -10 0 -5 -7 -10 -15 -10 -9 0 -12 -6 -9 -15 4
-8 1 -15 -5 -15 -6 0 -11 4 -11 8 0 5 -18 8 -41 8 -22 -1 -43 2 -46 7 -2 4 5
7 16 7 12 0 21 7 21 15 0 8 -7 15 -15 15 -9 0 -12 6 -9 15 4 8 1 15 -5 15 -14
0 -14 -27 0 -36 11 -6 -23 -33 -43 -34 -16 0 -7 19 10 23 13 4 11 5 -5 6 -13
1 -23 7 -23 16 0 18 12 19 29 3 10 -11 11 -8 7 14 -4 26 -4 26 27 15 32 -11
59 -31 52 -38 -2 -3 12 -4 31 -3 20 1 37 4 39 6 2 2 -30 16 -72 30 -89 31
-108 26 -162 -39 l-30 -37 2 131 c1 90 6 135 15 146 7 8 14 29 14 46 1 16 7
32 15 35 15 6 18 76 3 76 -5 0 -11 -8 -11 -17z m18 -499 c-3 -3 -12 -4 -19 -1
-8 3 -5 6 6 6 11 1 17 -2 13 -5z"/>
<path d="M1006 1006 c21 -15 30 -14 19 3 -3 6 -14 11 -23 11 -13 0 -13 -2 4
-14z"/>
<path d="M1155 1010 c3 -5 13 -10 21 -10 8 0 12 5 9 10 -3 6 -13 10 -21 10 -8
0 -12 -4 -9 -10z"/>
<path d="M1495 1011 c-3 -5 -1 -12 5 -16 5 -3 10 1 10 9 0 18 -6 21 -15 7z"/>
<path d="M1880 1000 c0 -22 1 -23 24 -14 23 9 20 34 -4 34 -13 0 -20 -7 -20
-20z"/>
<path d="M1110 1000 c-8 -5 -10 -10 -5 -10 6 0 17 5 25 10 8 5 11 10 5 10 -5
0 -17 -5 -25 -10z"/>
<path d="M241 984 c0 -11 3 -14 6 -6 3 7 2 16 -1 19 -3 4 -6 -2 -5 -13z"/>
<path d="M1250 990 c0 -5 5 -10 11 -10 5 0 7 5 4 10 -3 6 -8 10 -11 10 -2 0
-4 -4 -4 -10z"/>
<path d="M780 981 c0 -6 5 -13 10 -16 6 -3 10 -24 10 -46 0 -50 19 -48 37 2 7
19 12 27 13 19 0 -8 3 -26 6 -40 4 -20 3 -22 -5 -10 -18 25 -13 -10 5 -40 14
-23 14 -23 9 -2 -4 12 -3 22 2 22 5 0 10 11 11 26 1 14 -2 23 -8 19 -6 -4 -10
7 -10 24 0 44 -16 38 -33 -11 l-15 -43 -1 37 c-1 20 -4 43 -7 52 -7 17 -24 22
-24 7z"/>
<path d="M1130 986 c0 -2 7 -6 15 -10 8 -3 15 -1 15 4 0 6 -7 10 -15 10 -8 0
-15 -2 -15 -4z"/>
<path d="M1197 969 c7 -7 15 -10 18 -7 3 3 -2 9 -12 12 -14 6 -15 5 -6 -5z"/>
<path d="M1290 960 c0 -5 5 -10 10 -10 6 0 10 5 10 10 0 6 -4 10 -10 10 -5 0
-10 -4 -10 -10z"/>
<path d="M1323 943 c-20 -25 -21 -53 -2 -53 14 0 11 -98 -3 -102 -6 -2 -8 -10
-4 -17 6 -9 11 -8 21 5 13 18 9 96 -6 126 -6 10 -5 19 1 23 14 9 32 45 23 45
-4 0 -18 -12 -30 -27z"/>
<path d="M1618 963 c12 -2 32 -2 45 0 12 2 2 4 -23 4 -25 0 -35 -2 -22 -4z"/>
<path d="M1877 948 c4 -18 2 -20 -5 -9 -8 12 -13 8 -25 -20 -13 -31 -13 -36 5
-53 11 -10 17 -24 14 -32 -7 -17 2 -17 32 -1 23 13 23 13 -12 29 -27 13 -33
21 -29 37 3 12 9 19 13 16 5 -3 13 9 19 25 8 24 7 30 -4 30 -8 0 -11 -8 -8
-22z"/>
<path d="M1986 955 c4 -8 8 -15 10 -15 2 0 4 7 4 15 0 8 -4 15 -10 15 -5 0 -7
-7 -4 -15z"/>
<path d="M2160 959 c0 -5 5 -7 10 -4 6 3 10 8 10 11 0 2 -4 4 -10 4 -5 0 -10
-5 -10 -11z"/>
<path d="M1065 940 c-11 -17 5 -32 21 -19 7 6 11 15 8 20 -7 12 -21 11 -29 -1z"/>
<path d="M1020 931 c0 -6 5 -13 10 -16 6 -3 10 1 10 9 0 9 -4 16 -10 16 -5 0
-10 -4 -10 -9z"/>
<path d="M770 907 c0 -13 9 -33 20 -45 11 -12 20 -28 20 -37 0 -8 5 -15 11
-15 9 0 10 -29 5 -106 -7 -95 -25 -173 -40 -166 -17 7 -27 0 -22 -14 3 -8 -1
-22 -9 -30 -8 -9 -15 -22 -15 -30 0 -22 10 -16 21 14 10 26 11 26 25 8 19 -27
18 -11 -2 19 -14 21 -14 25 -2 25 8 0 24 11 36 25 22 26 24 37 22 182 0 34 3
41 15 37 17 -7 21 11 5 21 -6 4 -7 11 -4 17 4 6 2 8 -3 5 -6 -4 -13 6 -16 23
-5 21 -11 28 -22 24 -11 -5 -17 2 -21 25 -8 39 -24 51 -24 18z"/>
<path d="M1104 901 c-5 -5 -20 -11 -34 -14 l-25 -4 25 -1 c26 -2 58 13 49 22
-3 3 -10 2 -15 -3z"/>
<path d="M105 880 c3 -5 8 -10 11 -10 2 0 4 5 4 10 0 6 -5 10 -11 10 -5 0 -7
-4 -4 -10z"/>
<path d="M230 883 c0 -7 -9 -13 -20 -13 -27 0 -70 -21 -64 -31 3 -5 15 -4 26
2 11 6 46 11 77 11 51 0 54 1 26 10 -16 6 -33 16 -37 22 -5 8 -8 7 -8 -1z"/>
<path d="M887 854 c-4 -23 -2 -41 7 -49 10 -10 12 -4 10 32 -2 25 -5 47 -7 49
-2 3 -7 -12 -10 -32z"/>
<path d="M952 860 c0 -19 2 -27 5 -17 2 9 2 25 0 35 -3 9 -5 1 -5 -18z"/>
<path d="M1220 881 c8 -6 14 -24 13 -45 -1 -20 3 -36 8 -36 5 0 9 -10 9 -22 0
-13 4 -29 9 -36 5 -9 8 1 8 27 0 24 -4 39 -11 38 -6 -1 -10 7 -9 17 2 28 -15
66 -29 66 -9 0 -9 -3 2 -9z"/>
<path d="M1266 882 c-8 -13 13 -82 24 -82 13 0 12 10 -5 40 -19 33 -18 38 3
43 15 4 15 5 0 6 -9 0 -19 -3 -22 -7z"/>
<path d="M1590 880 c0 -5 4 -10 9 -10 6 0 13 5 16 10 3 6 -1 10 -9 10 -9 0
-16 -4 -16 -10z"/>
<path d="M1650 881 c0 -5 7 -12 16 -15 14 -5 15 -4 4 9 -14 17 -20 19 -20 6z"/>
<path d="M1200 865 c0 -5 5 -17 10 -25 5 -8 10 -10 10 -5 0 6 -5 17 -10 25 -5
8 -10 11 -10 5z"/>
<path d="M1521 854 c0 -11 3 -14 6 -6 3 7 2 16 -1 19 -3 4 -6 -2 -5 -13z"/>
<path d="M1801 856 c-7 -8 -13 -24 -14 -35 -1 -12 -6 -20 -12 -17 -6 2 -17 -5
-23 -15 -13 -20 -42 -26 -42 -9 0 6 -6 10 -12 9 -28 -3 -49 2 -43 11 3 5 13 7
23 4 14 -5 14 -3 -2 6 -14 10 -20 10 -26 0 -4 -7 -17 -10 -29 -7 -12 3 -18 1
-15 -4 3 -5 -10 -16 -28 -25 l-33 -15 30 6 c17 4 32 11 33 16 6 14 33 10 81
-11 l44 -20 20 22 20 23 -5 -32 c-4 -26 0 -33 19 -42 13 -6 30 -11 38 -11 8 0
12 -9 11 -25 -2 -13 1 -22 6 -19 5 3 7 12 4 20 -3 8 0 11 10 7 7 -3 14 -1 14
5 0 5 -20 15 -45 22 -48 14 -51 25 -21 75 30 48 27 97 -3 61z"/>
<path d="M2243 835 c0 -22 2 -30 4 -17 2 12 2 30 0 40 -3 9 -5 -1 -4 -23z"/>
<path d="M1619 838 c-10 -18 -9 -20 6 -15 9 4 19 7 21 7 2 0 4 7 4 15 0 22
-18 18 -31 -7z"/>
<path d="M1986 851 c-8 -12 43 -65 53 -55 3 3 -2 10 -12 16 -10 5 -22 19 -26
31 -5 14 -10 17 -15 8z"/>
<path d="M745 840 c-3 -5 -1 -10 4 -10 6 0 11 5 11 10 0 6 -2 10 -4 10 -3 0
-8 -4 -11 -10z"/>
<path d="M1040 825 c0 -8 8 -11 20 -8 11 3 20 7 20 8 0 1 -9 5 -20 8 -12 3
-20 0 -20 -8z"/>
<path d="M100 820 c0 -5 5 -10 11 -10 5 0 7 5 4 10 -3 6 -8 10 -11 10 -2 0 -4
-4 -4 -10z"/>
<path d="M248 823 c7 -3 16 -2 19 1 4 3 -2 6 -13 5 -11 0 -14 -3 -6 -6z"/>
<path d="M243 807 c-24 -6 -43 -14 -43 -19 0 -5 4 -6 10 -3 5 3 29 9 52 13 24
4 39 10 33 13 -5 3 -29 1 -52 -4z"/>
<path d="M925 810 c3 -5 8 -10 11 -10 2 0 4 5 4 10 0 6 -5 10 -11 10 -5 0 -7
-4 -4 -10z"/>
<path d="M1197 806 c-4 -10 -1 -13 8 -9 8 3 12 9 9 14 -7 12 -11 11 -17 -5z"/>
<path d="M1912 806 c7 -8 17 -12 22 -9 4 3 2 9 -5 14 -22 13 -31 11 -17 -5z"/>
<path d="M72 790 c0 -14 2 -19 5 -12 2 6 2 18 0 25 -3 6 -5 1 -5 -13z"/>
<path d="M146 796 c3 -8 -3 -16 -15 -19 -19 -5 -19 -6 -3 -68 20 -78 17 -73
39 -59 17 11 17 11 -1 6 -15 -5 -17 -2 -13 14 3 11 0 36 -6 55 -8 29 -7 38 6
53 21 23 21 32 2 32 -8 0 -12 -6 -9 -14z"/>
<path d="M430 801 c0 -6 5 -13 10 -16 6 -4 8 -11 5 -16 -7 -10 18 -13 28 -3
10 10 -12 44 -28 44 -8 0 -15 -4 -15 -9z"/>
<path d="M985 773 c5 -35 4 -42 -12 -46 -17 -4 -17 -5 0 -6 10 0 20 7 23 17 3
9 10 25 15 34 13 24 12 48 -1 28 -9 -13 -11 -13 -21 0 -7 11 -9 4 -4 -27z"/>
<path d="M1070 795 c0 -8 5 -15 10 -15 6 0 10 7 10 15 0 8 -4 15 -10 15 -5 0
-10 -7 -10 -15z"/>
<path d="M1126 793 c-6 -14 -5 -15 5 -6 7 7 10 15 7 18 -3 3 -9 -2 -12 -12z"/>
<path d="M1171 794 c0 -11 3 -14 6 -6 3 7 2 16 -1 19 -3 4 -6 -2 -5 -13z"/>
<path d="M1453 788 c-18 -5 -33 -13 -33 -20 0 -7 5 -6 15 2 9 8 32 10 62 7 27
-3 39 -3 28 0 -11 3 -24 9 -30 13 -5 4 -25 3 -42 -2z"/>
<path d="M1145 780 c-3 -5 -1 -10 4 -10 6 0 11 5 11 10 0 6 -2 10 -4 10 -3 0
-8 -4 -11 -10z"/>
<path d="M2072 770 c0 -14 2 -19 5 -12 2 6 2 18 0 25 -3 6 -5 1 -5 -13z"/>
<path d="M170 771 c0 -5 -2 -16 -5 -23 -4 -11 4 -14 34 -12 21 1 44 5 51 9 6
4 24 11 38 16 21 7 16 8 -23 6 -27 -2 -57 -5 -65 -8 -8 -2 -14 2 -12 9 1 6 -2
12 -8 12 -5 0 -10 -4 -10 -9z"/>
<path d="M881 773 c-1 -7 -8 -13 -16 -13 -8 0 -15 -5 -15 -11 0 -5 4 -8 9 -5
5 4 12 0 14 -6 3 -7 6 -4 6 7 1 18 3 17 14 -5 7 -14 21 -24 30 -24 9 1 15 -1
12 -5 -2 -4 5 -15 15 -24 12 -10 22 -12 25 -6 7 10 -42 54 -60 54 -5 0 -15 11
-22 25 -6 14 -12 19 -12 13z"/>
<path d="M910 770 c0 -5 5 -10 10 -10 6 0 10 5 10 10 0 6 -4 10 -10 10 -5 0
-10 -4 -10 -10z"/>
<path d="M961 764 c0 -11 3 -14 6 -6 3 7 2 16 -1 19 -3 4 -6 -2 -5 -13z"/>
<path d="M1221 769 c-1 -8 6 -24 15 -35 15 -19 15 -19 6 1 -5 11 -12 27 -15
35 -5 13 -6 13 -6 -1z"/>
<path d="M30 756 c0 -8 9 -21 20 -29 12 -8 20 -27 22 -49 1 -20 5 -35 9 -33 9
6 -4 74 -20 103 -13 25 -31 29 -31 8z"/>
<path d="M358 746 c-26 -13 -45 -26 -41 -30 4 -3 -6 -20 -22 -36 -16 -17 -23
-30 -17 -30 14 0 16 -56 3 -64 -4 -3 -6 -17 -3 -31 4 -21 1 -25 -20 -25 -14 0
-58 -12 -99 -26 -41 -14 -85 -28 -98 -30 -21 -4 -23 -2 -17 23 18 83 19 96 5
91 -8 -3 -15 -10 -15 -16 -1 -7 -3 -13 -4 -14 -3 -3 -10 -55 -11 -81 0 -20 23
-77 31 -77 3 0 6 9 6 20 0 11 -4 20 -8 20 -4 0 -8 3 -8 8 0 4 35 7 78 7 62 0
89 5 130 24 l52 24 2 66 c0 36 0 74 0 84 -1 10 3 15 8 12 6 -3 10 3 10 15 0
11 7 23 15 26 8 4 13 10 10 14 -2 4 16 13 40 20 25 7 45 17 45 21 0 14 -22 10
-72 -15z m-103 -239 c-40 -26 -106 -46 -128 -38 -17 7 -14 9 20 13 22 3 54 13
69 21 37 19 66 22 39 4z"/>
<path d="M1120 757 c0 -10 -10 -22 -22 -27 -14 -5 -17 -9 -7 -9 8 -1 20 4 27
11 9 9 15 9 24 0 15 -15 28 -15 28 -1 0 5 -4 8 -9 4 -5 -3 -17 5 -25 17 -13
19 -16 20 -16 5z"/>
<path d="M1193 763 c-15 -5 -17 -23 -4 -23 5 0 11 7 15 15 3 8 4 15 3 14 -1 0
-8 -3 -14 -6z"/>
<path d="M1282 741 c1 -25 3 -28 15 -15 13 12 12 16 -1 29 -13 13 -15 12 -14
-14z"/>
<path d="M1620 761 c0 -5 33 -19 73 -33 39 -14 81 -28 92 -32 11 -4 8 0 -6 8
-40 24 -159 66 -159 57z"/>
<path d="M1957 763 c-4 -3 -7 -11 -7 -17 0 -6 5 -5 12 2 6 6 9 14 7 17 -3 3
-9 2 -12 -2z"/>
<path d="M801 744 c0 -11 3 -14 6 -6 3 7 2 16 -1 19 -3 4 -6 -2 -5 -13z"/>
<path d="M1017 730 c6 -34 8 -35 31 -12 19 19 19 19 -1 32 -17 10 -19 10 -14
-4 4 -9 2 -16 -3 -16 -5 0 -10 6 -13 13 -2 6 -2 1 0 -13z"/>
<path d="M1440 750 c0 -5 3 -9 8 -8 15 4 122 -24 127 -33 4 -5 12 -9 19 -9 35
0 272 -125 256 -135 -6 -3 -27 3 -46 14 -19 12 -37 21 -39 21 -8 0 -25 -65
-24 -94 0 -17 11 -58 24 -91 l23 -60 0 51 c0 52 26 118 55 143 22 17 67 3 80
-26 10 -23 12 -23 24 -7 10 14 15 15 28 4 10 -8 15 -9 15 -1 0 6 -4 11 -10 11
-5 0 -10 9 -10 20 0 31 -167 126 -187 106 -3 -3 6 -8 21 -12 14 -3 26 -10 26
-15 0 -5 7 -9 16 -9 9 0 28 -8 42 -17 15 -10 36 -23 47 -29 22 -12 27 -35 8
-41 -6 -2 -14 5 -18 17 -4 12 -9 19 -12 16 -3 -3 -18 3 -33 14 -16 11 -32 20
-37 20 -4 0 -19 9 -33 20 -14 11 -33 20 -42 20 -10 0 -18 3 -18 8 0 4 -19 15
-43 25 -23 11 -55 25 -72 33 -48 22 -153 54 -175 54 -11 0 -20 -4 -20 -10z
m354 -185 c17 -13 18 -18 7 -41 -7 -16 -17 -24 -26 -21 -9 4 -15 -2 -18 -16
-3 -12 -4 -6 -3 13 1 20 6 41 10 48 4 7 4 17 1 22 -9 14 7 12 29 -5z m-12
-105 c-2 -16 -6 -30 -8 -30 -2 0 -4 14 -4 30 0 17 4 30 8 30 5 0 7 -13 4 -30z"/>
<path d="M1821 744 c0 -11 3 -14 6 -6 3 7 2 16 -1 19 -3 4 -6 -2 -5 -13z"/>
<path d="M472 730 c0 -14 2 -19 5 -12 2 6 2 18 0 25 -3 6 -5 1 -5 -13z"/>
<path d="M1597 739 c7 -7 15 -10 18 -7 3 3 -2 9 -12 12 -14 6 -15 5 -6 -5z"/>
<path d="M2243 710 c0 -25 2 -35 4 -22 2 12 2 32 0 45 -2 12 -4 2 -4 -23z"/>
<path d="M268 733 c-10 -2 -18 -11 -18 -19 0 -18 3 -18 30 6 23 20 21 22 -12
13z"/>
<path d="M436 725 c4 -8 10 -12 15 -9 11 6 2 24 -11 24 -5 0 -7 -7 -4 -15z"/>
<path d="M2000 736 c0 -2 7 -6 15 -10 8 -3 15 -1 15 4 0 6 -7 10 -15 10 -8 0
-15 -2 -15 -4z"/>
<path d="M412 705 c0 -16 2 -22 5 -12 2 9 2 23 0 30 -3 6 -5 -1 -5 -18z"/>
<path d="M630 719 c0 -19 12 -33 30 -37 11 -3 9 3 -5 20 -11 13 -21 25 -22 27
-2 2 -3 -2 -3 -10z"/>
<path d="M1421 702 c-18 -39 -12 -42 19 -10 17 16 30 30 30 32 0 1 -9 2 -19 2
-11 0 -25 -11 -30 -24z"/>
<path d="M1964 714 c3 -9 6 -26 6 -40 0 -16 4 -22 14 -18 17 7 27 -38 16 -76
-4 -15 -6 -38 -3 -52 3 -14 0 -29 -6 -32 -6 -4 -11 -16 -11 -27 0 -12 5 -17
10 -14 6 4 17 2 24 -4 10 -9 17 0 33 41 19 50 20 116 2 86 -5 -7 -9 -23 -9
-36 0 -27 -15 -22 -23 8 -3 11 -1 18 4 14 11 -6 11 7 0 62 -8 40 -8 41 23 41
28 0 29 -1 8 -10 -12 -6 -22 -17 -21 -26 0 -9 3 -11 5 -4 3 7 11 10 18 7 8 -3
16 4 19 15 3 14 -3 25 -22 37 -24 16 -25 16 -12 1 18 -22 9 -21 -31 3 -27 16
-29 20 -13 21 20 0 20 0 0 9 -30 13 -38 12 -31 -6z m58 -230 c-7 -12 -11 -13
-17 -4 -4 7 -2 16 6 21 18 11 23 4 11 -17z"/>
<path d="M2045 721 c-4 -7 0 -8 11 -4 11 4 15 3 10 -5 -3 -6 -2 -13 3 -16 5
-4 8 2 7 11 -3 20 -21 28 -31 14z"/>
<path d="M7 713 c-4 -3 -7 -12 -7 -20 0 -11 4 -11 20 -1 11 7 20 16 20 20 0
10 -24 10 -33 1z"/>
<path d="M170 710 c20 -13 70 -13 70 0 0 6 -19 10 -42 10 -32 0 -39 -3 -28
-10z"/>
<path d="M870 710 c0 -17 17 -47 23 -40 2 3 -2 16 -10 30 -7 14 -13 18 -13 10z"/>
<path d="M1650 716 c0 -2 7 -6 15 -10 8 -3 15 -1 15 4 0 6 -7 10 -15 10 -8 0
-15 -2 -15 -4z"/>
<path d="M1160 700 c0 -5 5 -10 11 -10 5 0 7 5 4 10 -3 6 -8 10 -11 10 -2 0
-4 -4 -4 -10z"/>
<path d="M545 690 c3 -5 8 -10 11 -10 2 0 4 5 4 10 0 6 -5 10 -11 10 -5 0 -7
-4 -4 -10z"/>
<path d="M1096 679 c-24 -24 -46 -24 -47 -1 0 11 -2 12 -6 4 -4 -9 -8 -10 -18
-2 -9 7 -15 8 -20 1 -3 -6 7 -14 22 -17 25 -7 25 -8 8 -15 -14 -5 -8 -7 20 -6
22 1 50 -2 61 -6 24 -9 42 19 24 37 -7 7 -10 5 -10 -7 0 -9 -7 -17 -15 -17
-18 0 -19 12 -3 28 6 6 10 13 7 16 -2 2 -13 -5 -23 -15z"/>
<path d="M1926 675 c-5 -21 -11 -25 -29 -20 -17 4 -16 2 6 -10 15 -9 27 -21
27 -27 0 -6 3 -8 6 -5 4 4 1 14 -7 24 -12 14 -12 16 1 11 11 -4 15 1 15 18 -2
35 -12 39 -19 9z"/>
<path d="M23 671 c-24 -20 -29 -31 -15 -31 11 0 52 35 52 44 0 11 -14 6 -37
-13z"/>
<path d="M1870 680 c-11 -7 -7 -10 18 -10 20 0 31 4 27 10 -8 13 -26 13 -45 0z"/>
<path d="M851 664 c0 -11 3 -14 6 -6 3 7 2 16 -1 19 -3 4 -6 -2 -5 -13z"/>
<path d="M1163 667 c2 -7 11 -11 20 -9 12 2 15 -2 10 -15 -6 -15 -5 -16 9 -3
10 10 12 18 5 25 -14 15 -49 17 -44 2z"/>
<path d="M630 662 c0 -14 41 -32 68 -31 14 0 13 2 -3 9 -11 5 -14 9 -7 9 7 1
10 5 7 11 -4 6 -13 5 -26 -3 -16 -10 -21 -9 -29 3 -7 10 -10 11 -10 2z"/>
<path d="M1345 660 c-3 -5 -1 -10 4 -10 6 0 11 5 11 10 0 6 -2 10 -4 10 -3 0
-8 -4 -11 -10z"/>
<path d="M966 651 c-4 -5 3 -7 14 -4 23 6 26 13 6 13 -8 0 -17 -4 -20 -9z"/>
<path d="M2239 523 c-1 -76 -3 -188 -5 -250 -2 -62 0 -122 5 -135 5 -14 9 81
10 250 0 149 -2 272 -4 272 -3 0 -5 -62 -6 -137z"/>
<path d="M181 633 c-7 -8 -10 -17 -6 -21 3 -3 9 -1 13 5 5 8 12 9 22 2 13 -8
12 -12 -5 -24 -11 -9 -25 -13 -31 -11 -7 3 -15 -2 -18 -10 -9 -24 -7 -26 13
-14 25 13 34 13 26 0 -3 -5 -1 -10 4 -10 6 0 11 4 11 8 0 5 7 17 15 28 15 18
15 18 13 0 -2 -10 4 -21 12 -23 13 -4 13 -3 0 6 -13 10 -8 15 13 12 16 -2 5
16 -20 35 -44 32 -47 33 -62 17z"/>
<path d="M568 643 c7 -3 16 -2 19 1 4 3 -2 6 -13 5 -11 0 -14 -3 -6 -6z"/>
<path d="M872 630 c0 -14 2 -19 5 -12 2 6 2 18 0 25 -3 6 -5 1 -5 -13z"/>
<path d="M1972 621 c13 -22 28 -28 28 -11 0 5 -9 14 -20 20 -19 10 -20 10 -8
-9z"/>
<path d="M80 621 c0 -6 -8 -11 -17 -11 -13 0 -14 -3 -6 -11 9 -9 16 -8 27 4
10 10 12 18 6 22 -5 3 -10 1 -10 -4z"/>
<path d="M615 623 c-16 -3 -34 -9 -40 -15 -12 -12 50 -1 75 13 16 9 14 9 -35
2z"/>
<path d="M730 618 c-14 -4 -59 -17 -100 -29 -167 -48 -330 -106 -345 -121 -7
-8 -2 -9 15 -3 14 4 39 9 55 11 34 5 23 -1 -57 -32 -32 -13 -46 -24 -45 -36 1
-10 8 -18 15 -18 8 0 12 6 9 14 -3 8 1 17 9 20 23 9 36 7 29 -4 -3 -5 -1 -10
4 -10 6 0 11 8 11 17 0 15 2 14 15 -3 14 -18 14 -18 9 2 -11 42 14 33 31 -11
15 -39 18 -43 31 -30 13 13 13 18 -5 42 -41 59 -38 79 13 73 10 -1 15 3 12 8
-5 8 24 22 59 27 6 0 23 6 38 13 38 16 52 16 38 -1 -6 -8 -29 -19 -51 -26 -41
-12 -46 -22 -34 -68 4 -14 14 -23 26 -23 10 0 16 5 13 10 -4 6 -11 8 -16 5 -5
-4 -9 7 -9 23 0 21 7 32 26 41 31 14 41 9 22 -10 -8 -9 -11 -27 -8 -49 l6 -35
7 40 c10 54 39 110 57 111 8 0 22 4 30 7 64 27 105 35 117 25 18 -15 29 -2 12
14 -9 9 -23 11 -39 6z"/>
<path d="M1678 589 c-17 -41 -17 -41 13 -103 63 -127 94 -166 49 -60 -23 53
-30 84 -30 137 0 37 -3 67 -7 67 -5 0 -16 -19 -25 -41z"/>
<path d="M530 610 c-12 -8 -11 -10 8 -10 12 0 22 5 22 10 0 13 -11 13 -30 0z"/>
<path d="M470 581 c0 -5 -18 -16 -40 -25 -55 -22 -51 -29 5 -8 25 9 45 22 45
29 0 7 -2 13 -5 13 -3 0 -5 -4 -5 -9z"/>
<path d="M690 574 c-29 -12 -40 -26 -62 -79 -16 -35 -28 -80 -28 -100 0 -20
-4 -34 -9 -31 -5 3 -12 -1 -15 -10 -4 -11 -13 -14 -28 -11 -14 4 -27 0 -35
-11 -8 -9 -11 -11 -7 -3 5 9 3 12 -4 7 -17 -11 4 -47 23 -40 8 4 15 1 15 -6 0
-7 -8 -10 -20 -7 -11 3 -18 1 -15 -3 3 -4 -3 -6 -14 -3 -14 4 -24 -6 -40 -41
-13 -25 -20 -50 -17 -55 3 -4 -16 -29 -42 -53 -26 -25 -48 -53 -48 -62 -1 -10
24 8 61 46 35 34 61 66 59 70 -3 4 -1 8 4 8 5 0 7 13 4 28 -2 18 2 33 12 41
10 8 16 9 16 3 0 -6 -4 -14 -10 -17 -15 -9 -12 -41 5 -55 8 -6 20 -8 27 -4 25
16 48 15 41 -2 -3 -9 -12 -13 -22 -9 -13 5 -14 4 -3 -6 15 -16 30 -3 37 30 2
13 12 30 22 37 17 13 17 14 -2 7 -18 -6 -18 -5 -6 10 7 9 18 17 23 17 14 0 -1
-61 -20 -82 -9 -11 -11 -18 -4 -18 7 0 12 5 12 10 0 6 6 10 14 10 8 0 17 7 20
16 10 26 7 64 -6 64 -9 0 -9 3 0 12 17 17 24 5 30 -52 2 -27 8 -50 12 -50 5 0
17 -3 27 -6 11 -4 14 -3 6 3 -6 4 -15 22 -19 38 -4 17 -12 41 -19 55 -10 21
-9 28 5 40 22 21 47 23 47 5 0 -11 -6 -13 -21 -9 -12 4 -6 -4 14 -18 45 -30
70 -81 70 -143 0 -57 10 -78 32 -70 9 4 19 2 23 -4 3 -6 1 -11 -5 -11 -6 0
-15 -11 -20 -25 -8 -21 -16 -25 -47 -25 -41 1 -101 40 -89 58 3 6 -4 9 -18 8
-13 0 -22 -4 -20 -7 2 -4 -15 -6 -37 -6 -22 0 -37 2 -34 5 7 7 -53 32 -74 31
-9 -1 -6 -4 9 -9 l25 -8 -23 -7 c-15 -5 -21 -13 -18 -22 3 -8 6 -17 6 -19 0
-2 5 -4 10 -4 6 0 10 8 8 18 -2 12 4 17 21 17 55 0 14 -45 -48 -51 -37 -4 -37
-13 0 -12 19 0 47 7 63 16 64 32 85 33 137 7 49 -26 123 -33 134 -15 4 6 10 8
15 5 4 -3 6 4 3 15 -4 14 0 20 12 20 17 0 47 -24 40 -32 -3 -3 2 -5 10 -5 8 0
11 5 8 10 -3 5 0 7 8 5 8 -3 13 -10 12 -15 -1 -5 7 -9 18 -9 10 0 19 6 19 13
0 15 16 17 25 3 8 -13 25 -13 25 0 0 6 -11 15 -24 20 -19 7 -23 14 -19 31 4
15 3 20 -6 15 -6 -4 -9 -12 -6 -17 4 -5 1 -9 -5 -9 -7 0 -14 9 -17 20 -6 24
-22 27 -19 3 2 -9 12 -24 25 -34 12 -10 17 -20 13 -23 -11 -6 -122 101 -122
118 0 6 -7 3 -14 -6 -14 -19 -26 -14 -26 9 0 8 5 11 10 8 6 -3 10 4 10 17 0
19 -2 20 -11 8 -8 -11 -9 -8 -4 13 4 21 3 27 -6 21 -8 -4 -9 -3 -5 5 11 17 -3
53 -17 45 -7 -4 -9 -4 -5 1 4 4 -4 17 -18 27 -31 25 -24 35 9 13 17 -11 27
-13 32 -5 3 5 -2 13 -12 16 -47 15 -57 23 -20 18 23 -4 37 -2 37 5 0 6 -8 8
-17 4 -12 -4 -9 1 7 15 25 21 25 21 3 17 -13 -2 -23 0 -23 6 0 5 5 9 12 9 6 0
8 3 5 6 -10 10 -37 -16 -31 -29 2 -7 -9 -18 -26 -24 -26 -10 -30 -9 -31 5 0
11 -2 12 -6 4 -2 -6 -10 -9 -16 -5 -7 3 -9 3 -5 -2 12 -12 -12 -47 -28 -41 -8
3 -14 0 -14 -7 0 -7 -12 -20 -26 -31 -22 -15 -28 -16 -35 -5 -11 18 -11 39 0
39 5 0 12 -6 15 -12 3 -7 4 -4 3 6 -1 13 8 25 28 35 16 9 35 21 42 27 7 7 37
22 68 35 42 17 55 27 54 43 0 21 0 21 -10 1 -6 -11 -43 -36 -82 -55 -88 -42
-97 -45 -75 -27 10 8 14 17 10 21 -4 4 -2 7 3 6 21 -5 36 0 30 10 -3 5 -13 7
-23 4 -14 -5 -14 -4 -2 4 10 8 18 8 27 0 8 -6 15 -9 16 -7 18 25 37 60 37 69
0 5 -9 10 -20 10 -11 0 -20 -5 -20 -11 0 -5 5 -7 10 -4 13 8 13 -1 0 -24 -5
-10 -20 -18 -33 -18 -23 0 -24 0 -10 40 21 62 41 91 76 111 18 10 29 14 25 10
-4 -4 -3 -13 3 -21 9 -10 6 -13 -14 -13 -14 0 -28 -4 -31 -9 -3 -4 6 -6 20 -3
24 4 26 2 20 -19 -7 -23 -6 -23 8 -5 19 24 21 86 4 85 -7 0 -29 -7 -48 -15z
m-120 -254 c-14 -10 -27 -17 -29 -14 -6 5 31 33 44 33 6 1 -1 -8 -15 -19z
m-23 -89 c-10 -12 -9 -13 13 -1 l25 13 -20 -22 -20 -23 -9 21 c-10 23 -21 27
-31 11 -4 -6 -3 -9 2 -8 4 2 9 0 11 -4 5 -17 2 -28 -9 -28 -5 0 -7 5 -4 10 3
6 1 10 -4 10 -16 0 -13 21 5 41 13 14 20 16 35 6 14 -9 16 -14 6 -26z m277
-116 c-4 -8 -1 -15 5 -15 6 0 11 -4 11 -9 0 -4 -11 -6 -25 -3 -30 5 -31 10 -7
28 22 17 23 17 16 -1z m40 -40 c3 -8 1 -15 -4 -15 -6 0 -10 7 -10 15 0 8 2 15
4 15 2 0 6 -7 10 -15z m36 -36 c0 -6 -4 -7 -10 -4 -5 3 -10 11 -10 16 0 6 5 7
10 4 6 -3 10 -11 10 -16z"/>
<path d="M100 559 c0 -6 -7 -9 -15 -5 -8 3 -15 2 -15 -3 0 -11 78 -31 96 -24
21 8 17 25 -5 18 -11 -3 -25 1 -34 10 -18 18 -27 19 -27 4z"/>
<path d="M378 563 c6 -2 18 -2 25 0 6 3 1 5 -13 5 -14 0 -19 -2 -12 -5z"/>
<path d="M1310 561 c0 -5 9 -7 20 -4 11 3 20 7 20 9 0 2 -9 4 -20 4 -11 0 -20
-4 -20 -9z"/>
<path d="M591 522 c-13 -25 -21 -60 -21 -89 0 -36 -3 -44 -11 -33 -8 12 -9 9
-4 -10 l6 -25 -15 25 c-15 24 -15 25 -16 3 0 -12 9 -27 20 -33 17 -9 20 -8 20
10 0 12 4 19 8 16 4 -2 6 11 4 30 -5 39 24 125 40 121 6 -1 12 4 14 11 1 8 0
8 -3 1 -4 -8 -8 -8 -13 1 -6 9 -15 0 -29 -28z"/>
<path d="M338 543 c6 -2 10 -9 7 -14 -4 -5 1 -6 10 -2 13 5 14 7 3 14 -7 5
-17 8 -23 8 -5 0 -4 -3 3 -6z"/>
<path d="M1840 511 c-23 -33 -45 -131 -35 -161 4 -12 0 -22 -12 -29 -14 -8
-15 -10 -3 -11 8 0 22 5 30 10 8 5 12 10 7 10 -13 0 33 80 62 109 15 15 30 34
34 43 9 25 -14 34 -30 13 -10 -15 -16 -16 -25 -7 -9 9 -9 15 0 24 14 14 16 28
3 28 -5 0 -19 -13 -31 -29z m33 -51 c3 -11 1 -18 -3 -15 -9 6 -26 -19 -48 -70
l-12 -30 4 36 c5 46 33 112 45 105 5 -3 11 -15 14 -26z"/>
<path d="M1281 504 c0 -11 3 -14 6 -6 3 7 2 16 -1 19 -3 4 -6 -2 -5 -13z"/>
<path d="M678 504 c6 -3 9 -10 6 -16 -4 -6 -1 -9 5 -7 19 7 14 24 -6 26 -10 2
-12 0 -5 -3z"/>
<path d="M1630 481 c-11 -28 -10 -32 22 -60 18 -17 39 -28 46 -26 7 3 10 0 7
-5 -3 -6 6 -21 22 -34 15 -13 26 -27 22 -30 -4 -5 -29 14 -123 90 -12 10 -22
12 -28 6 -6 -6 0 -12 17 -16 14 -4 24 -10 21 -15 -3 -4 6 -13 19 -19 14 -7 32
-27 41 -46 12 -25 21 -32 35 -29 11 3 19 10 19 15 0 5 5 6 10 3 6 -3 10 -2 10
4 0 5 6 11 13 14 6 2 5 3 -5 2 -16 -3 -48 33 -61 68 -4 10 -14 17 -23 15 -9
-2 -19 4 -21 12 -4 13 -3 13 6 0 20 -28 12 8 -10 44 -12 20 -22 36 -24 36 -1
0 -8 -13 -15 -29z m30 -32 c0 -6 -4 -7 -10 -4 -5 3 -10 11 -10 16 0 6 5 7 10
4 6 -3 10 -11 10 -16z m76 -137 c-4 -3 -14 2 -24 12 -16 18 -16 18 6 6 13 -6
21 -14 18 -18z"/>
<path d="M450 489 c0 -5 5 -7 10 -4 6 3 10 8 10 11 0 2 -4 4 -10 4 -5 0 -10
-5 -10 -11z"/>
<path d="M1947 493 c-10 -9 -9 -23 2 -23 5 0 11 7 15 15 5 15 -5 20 -17 8z"/>
<path d="M410 479 c0 -15 33 -69 42 -69 11 0 10 18 -2 25 -5 3 -10 17 -10 31
0 15 -6 24 -15 24 -8 0 -15 -5 -15 -11z"/>
<path d="M1148 483 c7 -3 16 -2 19 1 4 3 -2 6 -13 5 -11 0 -14 -3 -6 -6z"/>
<path d="M1355 480 c-3 -5 -1 -10 4 -10 6 0 11 5 11 10 0 6 -2 10 -4 10 -3 0
-8 -4 -11 -10z"/>
<path d="M2060 466 c0 -9 5 -16 10 -16 6 0 10 4 10 9 0 6 -4 13 -10 16 -5 3
-10 -1 -10 -9z"/>
<path d="M250 455 c-10 -12 -10 -15 4 -15 9 0 16 7 16 15 0 8 -2 15 -4 15 -2
0 -9 -7 -16 -15z"/>
<path d="M1285 450 c-3 -5 -1 -10 4 -10 6 0 11 5 11 10 0 6 -2 10 -4 10 -3 0
-8 -4 -11 -10z"/>
<path d="M1328 453 c7 -3 16 -2 19 1 4 3 -2 6 -13 5 -11 0 -14 -3 -6 -6z"/>
<path d="M1937 453 c-4 -3 -7 -14 -7 -24 0 -10 -5 -21 -12 -25 -7 -4 -8 -3 -4
4 4 7 1 12 -9 12 -10 0 -13 -5 -9 -12 5 -7 2 -9 -8 -5 -11 4 -20 -3 -28 -24
-7 -16 -10 -32 -7 -35 3 -3 8 4 12 16 4 13 12 19 21 16 8 -3 14 -2 14 3 0 4 7
8 15 8 12 0 14 -7 10 -27 -6 -25 -3 -28 29 -34 19 -4 37 -14 40 -22 8 -21 8
-22 -9 -27 -11 -3 -10 -4 2 -3 10 1 23 -5 29 -12 8 -11 9 -5 6 21 -2 22 4 49
17 76 17 32 19 46 11 59 -10 15 -10 15 -8 -3 4 -23 -30 -34 -43 -13 -7 10 -9
8 -9 -6 0 -16 -3 -17 -12 -8 -7 7 -20 12 -30 12 -15 0 -16 4 -7 26 10 27 8 40
-4 27z m33 -94 c0 -5 -7 -9 -15 -9 -15 0 -20 12 -9 23 8 8 24 -1 24 -14z m40
0 c0 -5 4 -7 10 -4 6 3 7 -1 4 -9 -5 -14 -34 -23 -34 -12 0 2 -3 11 -6 20 -4
11 -1 16 10 16 9 0 16 -5 16 -11z"/>
<path d="M791 434 c0 -11 3 -14 6 -6 3 7 2 16 -1 19 -3 4 -6 -2 -5 -13z"/>
<path d="M1525 435 c17 -8 37 -14 45 -14 8 0 -1 7 -20 14 -46 18 -64 17 -25 0z"/>
<path d="M200 424 c0 -8 5 -12 10 -9 6 3 10 10 10 16 0 5 -4 9 -10 9 -5 0 -10
-7 -10 -16z"/>
<path d="M705 429 c-4 -6 -5 -12 -2 -15 2 -3 7 2 10 11 7 17 1 20 -8 4z"/>
<path d="M1330 404 c0 -39 -39 -136 -59 -148 -6 -4 -11 -10 -11 -14 0 -10 60
-35 67 -28 4 3 -1 6 -9 6 -9 0 -19 7 -22 16 -3 8 -2 12 4 9 17 -11 42 57 43
119 2 56 4 61 26 64 13 2 21 -1 17 -6 -3 -5 1 -15 9 -22 8 -7 15 -17 15 -22 0
-5 6 -16 14 -23 10 -11 16 -11 26 -2 10 9 11 9 6 0 -4 -7 -2 -13 3 -13 6 0 11
-4 11 -10 0 -5 -7 -7 -15 -4 -12 5 -11 -2 5 -37 11 -24 20 -54 20 -67 0 -14 4
-21 11 -17 6 4 8 13 5 20 -2 7 5 27 16 45 l19 33 -42 43 c-50 51 -44 58 12 13
21 -17 39 -27 39 -22 0 18 -129 95 -169 100 l-41 6 0 -39z m103 4 c12 -10 14
-17 6 -28 -9 -13 -10 -13 -6 0 2 9 -7 20 -22 27 -15 7 -20 12 -10 12 8 1 23
-5 32 -11z m64 -122 c-14 -15 -16 -14 -22 4 -9 29 4 45 23 27 13 -14 13 -17
-1 -31z"/>
<path d="M1461 430 c-16 -9 37 -49 57 -43 7 3 11 -1 10 -9 -4 -16 24 -18 29
-2 2 6 -10 17 -27 24 -18 7 -37 19 -44 26 -7 7 -18 9 -25 4z"/>
<path d="M75 420 c-3 -6 1 -7 9 -4 18 7 21 14 7 14 -6 0 -13 -4 -16 -10z"/>
<path d="M145 420 c-21 -5 -24 -8 -10 -10 11 -1 28 -3 37 -5 11 -2 15 2 11 11
-3 8 -6 13 -7 13 0 -1 -14 -5 -31 -9z"/>
<path d="M1287 424 c-3 -3 -1 -14 4 -23 8 -12 4 -30 -14 -69 -14 -29 -27 -48
-30 -42 -3 6 -5 6 -3 -2 1 -6 7 -13 12 -15 12 -4 66 114 62 135 -3 17 -21 26
-31 16z m23 -14 c0 -5 -2 -10 -4 -10 -3 0 -8 5 -11 10 -3 6 -1 10 4 10 6 0 11
-4 11 -10z"/>
<path d="M1960 420 c0 -5 5 -10 11 -10 5 0 7 5 4 10 -3 6 -8 10 -11 10 -2 0
-4 -4 -4 -10z"/>
<path d="M1350 414 c0 -3 11 -25 25 -50 14 -25 25 -51 25 -59 0 -8 5 -15 10
-15 6 0 10 5 10 12 0 18 -33 88 -42 88 -4 0 -8 7 -8 15 0 8 -4 15 -10 15 -5 0
-10 -3 -10 -6z"/>
<path d="M324 370 c4 -28 2 -30 -27 -30 -49 0 -56 -9 -41 -50 l12 -35 1 37 c1
29 5 36 19 36 9 -1 31 2 47 6 30 7 30 7 8 -9 -13 -9 -23 -24 -24 -33 0 -10 -3
-12 -6 -4 -9 22 -25 12 -21 -13 3 -14 2 -25 -2 -25 -4 0 -5 -12 -2 -27 3 -18
-1 -31 -14 -41 -19 -14 -18 -14 1 -10 18 4 20 -1 22 -41 2 -32 0 -42 -7 -31
-8 12 -10 9 -10 -12 0 -29 15 -46 23 -26 3 7 6 -2 6 -20 1 -23 -3 -31 -11 -26
-7 5 -8 3 -3 -6 12 -19 36 17 30 44 -2 12 -9 54 -15 95 l-11 74 36 59 c40 68
40 68 19 68 -8 0 -12 5 -9 10 3 6 1 10 -4 10 -6 0 -11 4 -11 8 0 5 7 9 15 9 8
0 15 -4 15 -9 0 -4 4 -8 10 -8 5 0 7 7 4 15 -4 8 -17 15 -31 15 -21 0 -24 -4
-19 -30z"/>
<path d="M475 390 c5 -8 1 -18 -10 -27 -11 -7 -13 -13 -7 -13 7 0 12 -5 12
-11 0 -5 -4 -7 -10 -4 -5 3 -10 1 -10 -4 0 -6 4 -11 9 -11 24 0 40 63 19 76
-7 5 -8 2 -3 -6z"/>
<path d="M110 380 c0 -5 7 -10 15 -10 8 0 15 5 15 10 0 6 -7 10 -15 10 -8 0
-15 -4 -15 -10z"/>
<path d="M30 370 c0 -5 5 -10 11 -10 5 0 7 5 4 10 -3 6 -8 10 -11 10 -2 0 -4
-4 -4 -10z"/>
<path d="M1586 373 c-10 -11 -7 -23 7 -20 6 1 12 -4 11 -10 -1 -7 -2 -22 -2
-34 -1 -11 -7 -17 -13 -14 -6 4 -8 13 -5 21 8 22 -12 26 -23 5 -17 -30 -13
-38 19 -44 23 -5 30 -12 30 -31 0 -23 -2 -23 -42 -15 -44 10 -52 7 -62 -28 -7
-21 -4 -22 60 -25 l66 -3 4 -38 c4 -42 -13 -98 -24 -80 -9 14 -121 67 -128 61
-2 -3 18 -15 46 -26 36 -15 56 -31 72 -58 l21 -36 19 48 c20 51 18 132 -4 145
-6 4 -13 37 -16 74 -4 56 -2 69 12 77 9 5 16 14 16 19 0 6 -4 7 -10 4 -5 -3
-18 -1 -28 4 -11 6 -22 7 -26 4z m-23 -160 c-7 -2 -19 -2 -25 0 -7 3 -2 5 12
5 14 0 19 -2 13 -5z m0 -20 c-7 -2 -21 -2 -30 0 -10 3 -4 5 12 5 17 0 24 -2
18 -5z"/>
<path d="M0 353 c0 -13 4 -23 9 -23 6 0 6 -12 0 -32 -5 -17 -6 -34 -4 -37 3
-2 5 1 5 8 0 7 7 11 15 8 26 -11 27 12 1 55 -21 35 -26 39 -26 21z"/>
<path d="M420 355 c0 -8 4 -15 10 -15 5 0 7 7 4 15 -4 8 -8 15 -10 15 -2 0 -4
-7 -4 -15z"/>
<path d="M700 360 c0 -5 7 -7 15 -4 8 4 15 8 15 10 0 2 -7 4 -15 4 -8 0 -15
-4 -15 -10z"/>
<path d="M52 335 c2 -14 12 -21 33 -22 30 -3 30 -3 5 8 -13 5 -28 15 -33 22
-5 8 -7 5 -5 -8z"/>
<path d="M380 341 c0 -5 8 -15 18 -22 15 -12 16 -12 5 2 -7 9 -10 19 -6 22 3
4 1 7 -5 7 -7 0 -12 -4 -12 -9z"/>
<path d="M1870 340 c0 -5 7 -10 16 -10 8 0 12 5 9 10 -3 6 -10 10 -16 10 -5 0
-9 -4 -9 -10z"/>
<path d="M2060 340 c0 -5 5 -10 10 -10 6 0 10 5 10 10 0 6 -4 10 -10 10 -5 0
-10 -4 -10 -10z"/>
<path d="M1360 316 c0 -14 -5 -37 -12 -53 -12 -29 -15 -38 -17 -62 -1 -8 -8
-11 -20 -8 -11 3 -22 -1 -25 -9 -3 -8 -2 -13 2 -11 12 3 112 -45 112 -55 0 -4
-5 -8 -11 -8 -5 0 -7 -5 -4 -10 9 -15 26 -1 24 18 -3 36 2 52 16 52 8 0 15 -5
15 -11 0 -6 7 -4 15 5 19 19 20 32 1 17 -18 -15 -23 -6 -25 48 -1 53 -6 60
-21 31 -8 -15 -8 -20 -1 -16 6 4 11 3 11 -2 0 -5 -10 -14 -22 -21 -23 -11 -23
-11 2 -5 22 6 23 5 12 -9 -14 -16 -42 -13 -42 5 0 5 -4 7 -8 4 -4 -2 -8 4 -8
14 0 14 3 16 13 8 8 -6 16 -8 20 -4 3 3 2 6 -3 6 -5 0 -10 18 -11 40 0 22 3
40 9 40 5 0 6 5 3 10 -11 18 -25 10 -25 -14z m23 -132 c9 -4 17 -13 17 -20 0
-12 -5 -12 -30 1 -28 15 -45 43 -17 31 6 -3 20 -9 30 -12z"/>
<path d="M635 320 c3 -5 8 -10 11 -10 2 0 4 5 4 10 0 6 -5 10 -11 10 -5 0 -7
-4 -4 -10z"/>
<path d="M830 320 c0 -5 5 -10 10 -10 6 0 10 5 10 10 0 6 -4 10 -10 10 -5 0
-10 -4 -10 -10z"/>
<path d="M145 313 c-11 -3 -24 -9 -29 -14 -6 -5 -18 -9 -27 -9 -10 0 -25 -9
-33 -21 -9 -13 -19 -18 -27 -14 -8 6 -10 4 -3 -6 5 -8 7 -21 6 -31 -2 -9 2
-19 8 -23 6 -4 10 5 10 22 0 44 12 53 94 73 43 10 81 21 84 24 6 7 -54 6 -83
-1z"/>
<path d="M862 304 c-7 -8 -8 -14 -3 -14 10 0 25 19 20 25 -2 1 -10 -3 -17 -11z"/>
<path d="M470 300 c-12 -7 -10 -9 7 -7 12 0 19 5 17 9 -6 10 -6 10 -24 -2z"/>
<path d="M792 298 c-8 -8 -7 -17 2 -32 8 -11 16 -36 20 -54 9 -53 96 -144 96
-102 0 6 -6 10 -14 10 -19 0 -27 25 -13 41 9 10 7 10 -6 -1 -17 -12 -18 -11
-14 11 2 13 2 18 0 12 -13 -37 -39 10 -28 50 5 18 4 19 -5 7 -10 -13 -11 -12
-6 3 3 9 0 17 -6 17 -6 0 -9 3 -6 6 7 6 49 -14 58 -26 7 -10 128 -50 154 -51
19 0 19 -1 3 -8 -22 -8 105 -4 146 5 20 5 27 3 27 -9 0 -9 -8 -18 -17 -20 -17
-4 -17 -5 0 -6 9 0 17 -5 17 -11 0 -6 -33 -10 -79 -10 -44 0 -82 -3 -84 -7 -3
-5 19 -6 49 -5 30 2 66 1 79 -2 l25 -6 -21 -38 c-12 -20 -28 -46 -38 -57 -16
-19 -16 -19 13 -1 28 18 29 18 22 0 -4 -12 -4 -15 2 -9 13 14 32 70 42 125 5
25 11 55 15 66 6 21 5 21 -37 13 -113 -22 -260 8 -346 71 -28 20 -43 25 -50
18z"/>
<path d="M1655 287 c-4 -15 -5 -31 -1 -34 3 -4 6 4 6 17 0 23 0 23 15 4 15
-18 15 -18 8 0 -5 14 -3 17 7 11 9 -5 11 -4 6 4 -4 6 -11 9 -16 6 -4 -3 -10 1
-13 7 -2 7 -8 0 -12 -15z"/>
<path d="M1838 303 c7 -3 16 -2 19 1 4 3 -2 6 -13 5 -11 0 -14 -3 -6 -6z"/>
<path d="M2052 290 c0 -14 2 -19 5 -12 2 6 2 18 0 25 -3 6 -5 1 -5 -13z"/>
<path d="M670 291 c0 -6 7 -14 15 -17 7 -3 22 -27 31 -52 10 -26 21 -51 26
-56 4 -6 8 -24 8 -40 1 -27 2 -28 11 -13 14 25 2 90 -24 128 -25 37 -67 68
-67 50z m80 -105 c0 -26 -6 -18 -14 19 -5 22 -4 26 4 15 5 -8 10 -24 10 -34z"/>
<path d="M1770 289 c0 -5 5 -7 10 -4 6 3 10 8 10 11 0 2 -4 4 -10 4 -5 0 -10
-5 -10 -11z"/>
<path d="M218 283 c7 -3 16 -2 19 1 4 3 -2 6 -13 5 -11 0 -14 -3 -6 -6z"/>
<path d="M400 286 c0 -9 30 -14 35 -6 4 6 -3 10 -14 10 -12 0 -21 -2 -21 -4z"/>
<path d="M945 280 c-3 -5 -1 -10 4 -10 6 0 11 5 11 10 0 6 -2 10 -4 10 -3 0
-8 -4 -11 -10z"/>
<path d="M1737 284 c7 -3 9 -12 6 -21 -4 -11 -2 -14 5 -9 18 11 14 36 -5 35
-10 0 -13 -3 -6 -5z"/>
<path d="M1843 283 c-31 -3 -46 -10 -58 -30 -17 -25 -17 -26 4 -20 14 3 21 0
21 -9 0 -10 -7 -13 -25 -8 -21 5 -25 3 -25 -15 0 -12 3 -21 8 -21 13 0 20
-112 8 -152 -6 -21 -5 -26 8 -24 8 1 19 6 23 11 4 4 2 5 -6 0 -11 -6 -13 -3
-7 16 13 42 18 115 8 101 -7 -11 -11 -7 -14 12 -3 15 -1 29 5 33 6 4 3 10 -9
14 -18 7 -18 8 1 8 11 1 27 5 35 11 12 7 12 12 -4 29 -11 12 -17 21 -15 22 8
1 114 9 132 10 9 0 15 4 12 10 -6 9 -20 9 -102 2z"/>
<path d="M161 264 c0 -11 3 -14 6 -6 3 7 2 16 -1 19 -3 4 -6 -2 -5 -13z"/>
<path d="M2161 264 c0 -11 3 -14 6 -6 3 7 2 16 -1 19 -3 4 -6 -2 -5 -13z"/>
<path d="M1705 260 c-3 -5 -1 -10 4 -10 6 0 11 5 11 10 0 6 -2 10 -4 10 -3 0
-8 -4 -11 -10z"/>
<path d="M400 250 c0 -5 7 -10 16 -10 8 0 12 5 9 10 -3 6 -10 10 -16 10 -5 0
-9 -4 -9 -10z"/>
<path d="M1110 240 c8 -5 22 -9 30 -9 10 0 8 3 -5 9 -27 12 -43 12 -25 0z"/>
<path d="M1660 240 c-13 -8 -12 -10 3 -10 9 0 17 5 17 10 0 12 -1 12 -20 0z"/>
<path d="M261 214 c0 -11 3 -14 6 -6 3 7 2 16 -1 19 -3 4 -6 -2 -5 -13z"/>
<path d="M1913 222 c-8 -5 -9 -13 -3 -22 8 -12 10 -12 10 -1 0 9 12 12 45 9
27 -2 44 1 42 7 -4 12 -77 18 -94 7z"/>
<path d="M2020 216 c0 -9 7 -12 20 -9 11 3 20 9 20 14 0 5 -9 9 -20 9 -11 0
-20 -6 -20 -14z"/>
<path d="M1240 204 c0 -8 9 -14 20 -14 11 0 20 4 20 9 0 5 -9 11 -20 14 -13 3
-20 0 -20 -9z"/>
<path d="M1674 200 c0 -10 6 -16 13 -13 7 3 13 9 13 13 0 4 -6 10 -13 13 -7 3
-13 -3 -13 -13z"/>
<path d="M77 196 c-3 -8 -2 -27 3 -43 8 -26 8 -25 9 15 1 43 -3 52 -12 28z"/>
<path d="M140 185 c-10 -12 -10 -15 4 -15 9 0 16 7 16 15 0 8 -2 15 -4 15 -2
0 -9 -7 -16 -15z"/>
<path d="M381 169 c-13 -11 -21 -23 -17 -27 4 -4 14 2 23 13 8 11 19 19 24 18
5 -2 9 2 9 7 0 15 -12 12 -39 -11z"/>
<path d="M895 180 c11 -5 27 -9 35 -9 9 0 8 4 -5 9 -11 5 -27 9 -35 9 -9 0 -8
-4 5 -9z"/>
<path d="M957 176 c-4 -10 1 -12 14 -9 23 6 24 9 5 16 -8 3 -17 0 -19 -7z"/>
<path d="M2015 180 c-3 -4 9 -11 26 -15 18 -4 33 -15 36 -25 3 -11 13 -18 26
-17 50 2 78 -3 71 -14 -4 -8 0 -9 15 -4 15 4 21 2 21 -9 0 -10 -6 -13 -17 -10
-13 4 -14 3 -5 -3 10 -8 9 -17 -3 -46 -24 -57 -3 -43 25 17 30 63 25 71 -52
87 -29 7 -72 20 -95 30 -23 10 -45 14 -48 9z"/>
<path d="M41 180 c-8 -22 -9 -170 -1 -175 6 -4 10 5 10 19 0 14 5 26 11 26 5
0 7 5 3 11 -4 7 -10 37 -14 68 -4 31 -8 54 -9 51z"/>
<path d="M320 169 c0 -5 5 -7 10 -4 6 3 10 8 10 11 0 2 -4 4 -10 4 -5 0 -10
-5 -10 -11z"/>
<path d="M1480 162 c0 -11 7 -23 16 -26 24 -9 25 -4 3 23 -18 22 -19 22 -19 3z"/>
<path d="M1717 173 c-4 -3 -7 -13 -7 -22 1 -13 3 -13 11 2 11 19 8 33 -4 20z"/>
<path d="M1848 173 c7 -3 16 -2 19 1 4 3 -2 6 -13 5 -11 0 -14 -3 -6 -6z"/>
<path d="M640 154 c0 -8 5 -12 10 -9 6 3 10 10 10 16 0 5 -4 9 -10 9 -5 0 -10
-7 -10 -16z"/>
<path d="M695 150 c-3 -5 -1 -10 4 -10 6 0 11 5 11 10 0 6 -2 10 -4 10 -3 0
-8 -4 -11 -10z"/>
<path d="M727 153 c-4 -3 -7 -11 -7 -17 0 -6 5 -5 12 2 6 6 9 14 7 17 -3 3 -9
2 -12 -2z"/>
<path d="M900 150 c0 -5 6 -10 14 -10 8 0 23 -3 33 -6 16 -6 16 -5 -2 9 -23
19 -45 22 -45 7z"/>
<path d="M1063 153 c9 -2 23 -2 30 0 6 3 -1 5 -18 5 -16 0 -22 -2 -12 -5z"/>
<path d="M1245 125 c3 -16 -1 -42 -9 -57 -12 -23 -12 -27 0 -32 9 -3 12 -1 9
4 -3 6 -3 16 2 23 4 6 8 18 9 25 4 23 13 26 36 13 13 -6 15 -9 6 -7 -12 4 -18
0 -18 -10 0 -12 4 -13 20 -4 12 6 30 10 42 8 12 -2 23 3 25 12 3 10 2 11 -4 3
-6 -8 -18 -7 -48 7 -22 11 -45 19 -52 20 -6 0 -14 6 -17 13 -3 6 -4 -1 -1 -18z"/>
<path d="M1827 123 c-3 -15 -2 -36 2 -47 5 -13 8 -5 8 27 1 53 -2 60 -10 20z"/>
<path d="M1437 120 c-22 -26 -21 -30 4 -25 25 5 38 15 19 15 -10 0 -10 3 0 15
7 8 8 15 3 15 -5 0 -16 -9 -26 -20z"/>
<path d="M1537 134 c-9 -9 56 -52 71 -46 21 7 13 22 -12 22 -13 0 -26 7 -30
15 -6 16 -18 19 -29 9z"/>
<path d="M466 113 c-6 -14 -5 -15 5 -6 7 7 10 15 7 18 -3 3 -9 -2 -12 -12z"/>
<path d="M6 87 c3 -10 9 -15 12 -12 3 3 0 11 -7 18 -10 9 -11 8 -5 -6z"/>
<path d="M130 96 c0 -2 9 -6 20 -9 11 -3 18 -1 14 4 -5 9 -34 13 -34 5z"/>
<path d="M2108 93 c7 -3 16 -2 19 1 4 3 -2 6 -13 5 -11 0 -14 -3 -6 -6z"/>
<path d="M750 65 c0 -14 3 -25 8 -25 4 0 7 11 7 25 0 14 -3 25 -7 25 -5 0 -8
-11 -8 -25z"/>
<path d="M1005 79 c-11 -17 -2 -18 19 -3 17 12 17 14 4 14 -9 0 -20 -5 -23
-11z"/>
<path d="M384 57 c-8 -9 -7 -16 1 -24 10 -9 13 -6 13 13 0 13 -1 24 -2 24 0
-1 -6 -6 -12 -13z"/>
<path d="M1745 59 c-10 -15 3 -25 16 -12 7 7 7 13 1 17 -6 3 -14 1 -17 -5z"/>
<path d="M2167 63 c-4 -3 -7 -11 -7 -17 0 -6 5 -5 12 2 6 6 9 14 7 17 -3 3 -9
2 -12 -2z"/>
<path d="M2230 36 c0 -20 5 -36 10 -36 6 0 10 13 10 29 0 17 -4 33 -10 36 -6
4 -10 -8 -10 -29z"/>
<path d="M1268 30 c-3 -19 0 -30 7 -30 7 0 10 11 7 30 -2 17 -5 30 -7 30 -2 0
-5 -14 -7 -30z"/>
<path d="M1540 56 c0 -3 9 -10 20 -16 11 -6 20 -8 20 -6 0 3 -9 10 -20 16 -11
6 -20 8 -20 6z"/>
<path d="M151 24 c0 -11 3 -14 6 -6 3 7 2 16 -1 19 -3 4 -6 -2 -5 -13z"/>
<path d="M70 15 c0 -8 4 -15 10 -15 5 0 7 7 4 15 -4 8 -8 15 -10 15 -2 0 -4
-7 -4 -15z"/>
<path d="M1324 9 c-3 -5 32 -9 78 -8 95 1 93 5 -5 12 -37 3 -70 1 -73 -4z"/>
</g>
</svg>
